<svg width="675" height="86" viewBox="0 0 675 86" fill="none" xmlns="http://www.w3.org/2000/svg">
<path d="M1 34H500V52H1V34Z" fill="#D4B5B0"/>
<path d="M6.592 14.456H15.04V51.576H33.792V59H6.592V14.456ZM46.085 20.6C44.6343 20.6 43.397 20.1093 42.373 19.128C41.349 18.1467 40.837 16.8667 40.837 15.288C40.837 13.7093 41.349 12.4293 42.373 11.448C43.397 10.4667 44.6343 9.976 46.085 9.976C47.5357 9.976 48.773 10.4667 49.797 11.448C50.821 12.4293 51.333 13.7093 51.333 15.288C51.333 16.8667 50.821 18.1467 49.797 19.128C48.773 20.1093 47.5357 20.6 46.085 20.6ZM50.309 25.592V59H41.861V25.656L50.309 25.592ZM79.0625 24.824C82.4332 24.824 85.1425 25.8267 87.1905 27.832C89.2812 29.7947 90.3265 32.3973 90.3265 35.64V59H81.8785V40.44C81.8785 37.5387 81.4305 35.4693 80.5345 34.232C79.6812 32.952 78.2518 32.312 76.2465 32.312C73.9852 32.312 71.6385 33.5707 69.2065 36.088V59H60.7585V10.744H69.2065V29.048C70.8705 27.5547 72.4705 26.488 74.0065 25.848C75.5852 25.1653 77.2705 24.824 79.0625 24.824ZM122.112 59L121.28 54.968C118.251 58.168 114.603 59.768 110.336 59.768C106.965 59.768 104.213 58.8933 102.08 57.144C99.9893 55.3947 98.944 53.0907 98.944 50.232C98.944 46.52 100.309 43.64 103.04 41.592C105.813 39.5013 109.803 38.456 115.008 38.456C116.885 38.456 118.763 38.5413 120.64 38.712V37.496C120.64 35.6187 120.107 34.232 119.04 33.336C117.973 32.3973 116.288 31.928 113.984 31.928C111.723 31.928 109.611 32.312 107.648 33.08C105.728 33.8053 103.637 35 101.376 36.664V29.112C103.339 27.6187 105.387 26.5307 107.52 25.848C109.653 25.1653 112 24.824 114.56 24.824C119.296 24.824 122.901 25.848 125.376 27.896C127.893 29.9013 129.152 32.8453 129.152 36.728V51.576L130.56 59H122.112ZM107.392 49.592C107.392 52.0667 108.8 53.304 111.616 53.304C113.237 53.304 114.773 52.984 116.224 52.344C117.675 51.6613 119.147 50.5947 120.64 49.144V44.6H114.496C112.021 44.6 110.208 44.9627 109.056 45.688C107.947 46.4133 107.392 47.7147 107.392 49.592ZM148.165 25.592H155.845V31.864H148.165V47.992C148.165 51.2347 149.402 52.856 151.877 52.856C153.029 52.856 154.373 52.4507 155.909 51.64V58.616C154.842 59 153.84 59.2773 152.901 59.448C152.005 59.6613 150.981 59.768 149.829 59.768C143.088 59.768 139.717 55.8427 139.717 47.992V31.864H134.853V25.592H139.717V16.632L148.165 13.688V25.592ZM183.28 14.456H198C204.144 14.456 208.73 15.7147 211.76 18.232C214.789 20.7067 216.304 24.312 216.304 29.048C216.304 33.8267 214.81 37.5387 211.824 40.184C208.837 42.8293 204.485 44.152 198.768 44.152H191.728V59H183.28V14.456ZM198.064 36.792C201.264 36.792 203.61 36.216 205.104 35.064C206.64 33.912 207.408 31.9707 207.408 29.24C207.408 26.5947 206.661 24.7173 205.168 23.608C203.674 22.4987 201.285 21.944 198 21.944H191.728V36.792H198.064ZM254.138 44.856H230.906C231.247 47.416 232.186 49.3787 233.722 50.744C235.3 52.1093 237.391 52.792 239.994 52.792C241.914 52.792 243.983 52.4507 246.202 51.768C248.463 51.0427 250.554 50.0613 252.474 48.824H252.729V55.672C251.023 56.9947 249.06 58.0187 246.842 58.744C244.666 59.4267 242.362 59.768 239.93 59.768C236.431 59.768 233.38 59.064 230.778 57.656C228.175 56.248 226.17 54.2213 224.762 51.576C223.354 48.9307 222.65 45.8373 222.65 42.296C222.65 38.84 223.311 35.7893 224.634 33.144C225.999 30.4987 227.898 28.4507 230.33 27C232.762 25.5493 235.578 24.824 238.778 24.824C241.892 24.824 244.602 25.528 246.906 26.936C249.252 28.344 251.044 30.3707 252.282 33.016C253.519 35.6613 254.138 38.7547 254.138 42.296V44.856ZM238.778 31.608C236.772 31.608 235.087 32.2693 233.722 33.592C232.399 34.9147 231.503 36.7493 231.034 39.096H245.434C245.092 36.664 244.367 34.808 243.258 33.528C242.148 32.248 240.655 31.608 238.778 31.608ZM281.313 24.824C284.683 24.824 287.393 25.8267 289.441 27.832C291.531 29.7947 292.576 32.3973 292.576 35.64V59H284.129V40.44C284.129 37.5387 283.681 35.4693 282.785 34.232C281.931 32.952 280.502 32.312 278.497 32.312C276.278 32.312 273.931 33.5493 271.457 36.024V59H263.009V33.016L261.601 25.592H269.345L270.561 29.88C272.395 28.088 274.166 26.808 275.873 26.04C277.579 25.2293 279.393 24.824 281.313 24.824ZM327.562 59L326.282 54.52C324.746 56.184 322.954 57.464 320.906 58.36C318.901 59.256 316.789 59.704 314.57 59.704C310.645 59.704 307.53 58.168 305.226 55.096C302.965 52.024 301.834 47.8427 301.834 42.552C301.834 36.9627 303.135 32.6107 305.738 29.496C308.383 26.3813 312.095 24.824 316.874 24.824C319.946 24.824 322.805 25.4853 325.45 26.808V10.744H333.898V51.576L335.306 59H327.562ZM310.73 42.424C310.73 45.752 311.242 48.312 312.266 50.104C313.29 51.896 314.805 52.792 316.81 52.792C319.626 52.792 322.506 51.384 325.45 48.568V32.76C322.975 32.12 320.714 31.8 318.666 31.8C315.935 31.8 313.93 32.6747 312.65 34.424C311.37 36.1307 310.73 38.7973 310.73 42.424ZM365.3 59L364.468 54.968C361.438 58.168 357.79 59.768 353.524 59.768C350.153 59.768 347.401 58.8933 345.268 57.144C343.177 55.3947 342.132 53.0907 342.132 50.232C342.132 46.52 343.497 43.64 346.228 41.592C349.001 39.5013 352.99 38.456 358.196 38.456C360.073 38.456 361.95 38.5413 363.828 38.712V37.496C363.828 35.6187 363.294 34.232 362.228 33.336C361.161 32.3973 359.476 31.928 357.172 31.928C354.91 31.928 352.798 32.312 350.836 33.08C348.916 33.8053 346.825 35 344.564 36.664V29.112C346.526 27.6187 348.574 26.5307 350.708 25.848C352.841 25.1653 355.188 24.824 357.748 24.824C362.484 24.824 366.089 25.848 368.564 27.896C371.081 29.9013 372.34 32.8453 372.34 36.728V51.576L373.748 59H365.3ZM350.58 49.592C350.58 52.0667 351.988 53.304 354.804 53.304C356.425 53.304 357.961 52.984 359.412 52.344C360.862 51.6613 362.334 50.5947 363.828 49.144V44.6H357.684C355.209 44.6 353.396 44.9627 352.244 45.688C351.134 46.4133 350.58 47.7147 350.58 49.592ZM382.777 31.864H377.785V25.592H382.777V21.752C382.777 17.784 383.694 14.84 385.529 12.92C387.363 10.9573 390.03 9.976 393.529 9.976C394.851 9.976 395.982 10.104 396.921 10.36C397.859 10.616 398.777 11 399.673 11.512V18.488C397.795 17.5067 396.11 17.016 394.617 17.016C393.379 17.016 392.505 17.3787 391.993 18.104C391.481 18.7867 391.225 20.0027 391.225 21.752V25.592H399.033V31.864H391.225V59H382.777V31.864ZM414.415 25.592H422.095V31.864H414.415V47.992C414.415 51.2347 415.652 52.856 418.127 52.856C419.279 52.856 420.623 52.4507 422.159 51.64V58.616C421.092 59 420.09 59.2773 419.151 59.448C418.255 59.6613 417.231 59.768 416.079 59.768C409.338 59.768 405.967 55.8427 405.967 47.992V31.864H401.103V25.592H405.967V16.632L414.415 13.688V25.592ZM451.112 59L450.28 54.968C447.251 58.168 443.603 59.768 439.336 59.768C435.965 59.768 433.213 58.8933 431.08 57.144C428.989 55.3947 427.944 53.0907 427.944 50.232C427.944 46.52 429.309 43.64 432.04 41.592C434.813 39.5013 438.803 38.456 444.008 38.456C445.885 38.456 447.763 38.5413 449.64 38.712V37.496C449.64 35.6187 449.107 34.232 448.04 33.336C446.973 32.3973 445.288 31.928 442.984 31.928C440.723 31.928 438.611 32.312 436.648 33.08C434.728 33.8053 432.637 35 430.376 36.664V29.112C432.339 27.6187 434.387 26.5307 436.52 25.848C438.653 25.1653 441 24.824 443.56 24.824C448.296 24.824 451.901 25.848 454.376 27.896C456.893 29.9013 458.152 32.8453 458.152 36.728V51.576L459.56 59H451.112ZM436.392 49.592C436.392 52.0667 437.8 53.304 440.616 53.304C442.237 53.304 443.773 52.984 445.224 52.344C446.675 51.6613 448.147 50.5947 449.64 49.144V44.6H443.496C441.021 44.6 439.208 44.9627 438.056 45.688C436.947 46.4133 436.392 47.7147 436.392 49.592ZM485.613 24.824V33.144H484.525C481.197 33.144 478.488 34.0613 476.397 35.896V59H467.949V33.016L466.541 25.592H474.989L475.821 30.008C477.229 28.088 478.509 26.744 479.661 25.976C480.813 25.208 482.093 24.824 483.501 24.824H485.613Z" fill="#383E56"/>
</svg>
