<svg width="675" height="86" viewBox="0 0 675 86" fill="none" xmlns="http://www.w3.org/2000/svg">
<path d="M1 34H173V52H1V34Z" fill="#D4B5B0"/>
<path d="M6.592 14.456H21.312C27.456 14.456 32.0427 15.7147 35.072 18.232C38.1013 20.7067 39.616 24.312 39.616 29.048C39.616 33.8267 38.1227 37.5387 35.136 40.184C32.1493 42.8293 27.7973 44.152 22.08 44.152H15.04V59H6.592V14.456ZM21.376 36.792C24.576 36.792 26.9227 36.216 28.416 35.064C29.952 33.912 30.72 31.9707 30.72 29.24C30.72 26.5947 29.9733 24.7173 28.48 23.608C26.9867 22.4987 24.5973 21.944 21.312 21.944H15.04V36.792H21.376ZM65.738 24.824V33.144H64.65C61.322 33.144 58.6127 34.0613 56.522 35.896V59H48.074V33.016L46.666 25.592H55.114L55.946 30.008C57.354 28.088 58.634 26.744 59.786 25.976C60.938 25.208 62.218 24.824 63.626 24.824H65.738ZM88.355 59.768C84.9843 59.768 82.019 59.064 79.459 57.656C76.899 56.2053 74.915 54.1573 73.507 51.512C72.1417 48.8667 71.459 45.7947 71.459 42.296C71.459 38.7973 72.1417 35.7253 73.507 33.08C74.915 30.4347 76.899 28.408 79.459 27C82.019 25.5493 84.9843 24.824 88.355 24.824C91.7257 24.824 94.691 25.5493 97.251 27C99.811 28.408 101.774 30.4347 103.139 33.08C104.547 35.7253 105.251 38.7973 105.251 42.296C105.251 45.7947 104.547 48.8667 103.139 51.512C101.774 54.1573 99.811 56.2053 97.251 57.656C94.691 59.064 91.7257 59.768 88.355 59.768ZM88.355 52.792C90.8723 52.792 92.835 51.896 94.243 50.104C95.651 48.2693 96.355 45.6667 96.355 42.296C96.355 38.8827 95.651 36.28 94.243 34.488C92.835 32.696 90.8723 31.8 88.355 31.8C85.8377 31.8 83.875 32.696 82.467 34.488C81.059 36.28 80.355 38.8827 80.355 42.296C80.355 45.6667 81.059 48.2693 82.467 50.104C83.875 51.896 85.8377 52.792 88.355 52.792ZM115.277 31.864H110.285V25.592H115.277V21.752C115.277 17.784 116.194 14.84 118.029 12.92C119.863 10.9573 122.53 9.976 126.029 9.976C127.351 9.976 128.482 10.104 129.421 10.36C130.359 10.616 131.277 11 132.173 11.512V18.488C130.295 17.5067 128.61 17.016 127.117 17.016C125.879 17.016 125.005 17.3787 124.493 18.104C123.981 18.7867 123.725 20.0027 123.725 21.752V25.592H131.533V31.864H123.725V59H115.277V31.864ZM140.812 20.6C139.362 20.6 138.125 20.1093 137.101 19.128C136.077 18.1467 135.565 16.8667 135.565 15.288C135.565 13.7093 136.077 12.4293 137.101 11.448C138.125 10.4667 139.362 9.976 140.812 9.976C142.263 9.976 143.501 10.4667 144.525 11.448C145.549 12.4293 146.061 13.7093 146.061 15.288C146.061 16.8667 145.549 18.1467 144.525 19.128C143.501 20.1093 142.263 20.6 140.812 20.6ZM145.037 25.592V59H136.589V25.656L145.037 25.592ZM154.486 10.744H162.934V59H154.486V10.744Z" fill="#383E56"/>
</svg>
