<svg width="675" height="86" viewBox="0 0 675 86" fill="none" xmlns="http://www.w3.org/2000/svg">
<path d="M1 34H372V52H1V34Z" fill="#D4B5B0"/>
<path d="M33.024 48.888H14.016L10.304 59H1.856L18.752 14.456H28.608L45.504 59H36.736L33.024 48.888ZM30.4 41.72L23.552 22.776L16.64 41.72H30.4ZM68.367 59.768C64.8683 59.768 61.7963 59.064 59.151 57.656C56.5483 56.2053 54.543 54.1787 53.135 51.576C51.727 48.9733 51.023 45.9227 51.023 42.424C51.023 38.9253 51.7483 35.8533 53.199 33.208C54.6497 30.52 56.6763 28.4507 59.279 27C61.9243 25.5493 64.9537 24.824 68.367 24.824C72.207 24.824 75.4497 25.6133 78.095 27.192V34.616H77.839C76.431 33.7627 74.895 33.1227 73.231 32.696C71.6097 32.2693 70.095 32.056 68.687 32.056C65.743 32.056 63.5243 32.9307 62.031 34.68C60.5377 36.4293 59.791 39.0107 59.791 42.424C59.791 49.1653 62.7137 52.536 68.559 52.536C70.095 52.536 71.6523 52.3013 73.231 51.832C74.8523 51.32 76.3883 50.616 77.839 49.72H78.095V57.272C75.3643 58.936 72.1217 59.768 68.367 59.768ZM108.05 59L107.218 54.968C104.188 58.168 100.54 59.768 96.2735 59.768C92.9028 59.768 90.1508 58.8933 88.0175 57.144C85.9268 55.3947 84.8815 53.0907 84.8815 50.232C84.8815 46.52 86.2468 43.64 88.9775 41.592C91.7508 39.5013 95.7402 38.456 100.946 38.456C102.823 38.456 104.7 38.5413 106.578 38.712V37.496C106.578 35.6187 106.044 34.232 104.978 33.336C103.911 32.3973 102.226 31.928 99.9215 31.928C97.6602 31.928 95.5482 32.312 93.5855 33.08C91.6655 33.8053 89.5748 35 87.3135 36.664V29.112C89.2762 27.6187 91.3242 26.5307 93.4575 25.848C95.5908 25.1653 97.9375 24.824 100.498 24.824C105.234 24.824 108.839 25.848 111.314 27.896C113.831 29.9013 115.09 32.8453 115.09 36.728V51.576L116.498 59H108.05ZM93.3295 49.592C93.3295 52.0667 94.7375 53.304 97.5535 53.304C99.1748 53.304 100.711 52.984 102.162 52.344C103.612 51.6613 105.084 50.5947 106.578 49.144V44.6H100.434C97.9588 44.6 96.1455 44.9627 94.9935 45.688C93.8842 46.4133 93.3295 47.7147 93.3295 49.592ZM142.551 24.824V33.144H141.463C138.135 33.144 135.425 34.0613 133.335 35.896V59H124.887V33.016L123.479 25.592H131.927L132.759 30.008C134.167 28.088 135.447 26.744 136.599 25.976C137.751 25.208 139.031 24.824 140.439 24.824H142.551ZM172.05 59L171.218 54.968C168.188 58.168 164.54 59.768 160.274 59.768C156.903 59.768 154.151 58.8933 152.018 57.144C149.927 55.3947 148.882 53.0907 148.882 50.232C148.882 46.52 150.247 43.64 152.978 41.592C155.751 39.5013 159.74 38.456 164.946 38.456C166.823 38.456 168.7 38.5413 170.578 38.712V37.496C170.578 35.6187 170.044 34.232 168.978 33.336C167.911 32.3973 166.226 31.928 163.922 31.928C161.66 31.928 159.548 32.312 157.586 33.08C155.666 33.8053 153.575 35 151.314 36.664V29.112C153.276 27.6187 155.324 26.5307 157.458 25.848C159.591 25.1653 161.938 24.824 164.498 24.824C169.234 24.824 172.839 25.848 175.314 27.896C177.831 29.9013 179.09 32.8453 179.09 36.728V51.576L180.498 59H172.05ZM157.33 49.592C157.33 52.0667 158.738 53.304 161.554 53.304C163.175 53.304 164.711 52.984 166.162 52.344C167.612 51.6613 169.084 50.5947 170.578 49.144V44.6H164.434C161.959 44.6 160.146 44.9627 158.994 45.688C157.884 46.4133 157.33 47.7147 157.33 49.592ZM234.216 35.832C236.52 36.8133 238.269 38.2 239.464 39.992C240.659 41.784 241.256 43.96 241.256 46.52C241.256 50.5733 239.784 53.6667 236.84 55.8C233.896 57.9333 229.629 59 224.04 59H207.592V14.456H224.808C229.629 14.456 233.341 15.48 235.944 17.528C238.547 19.5333 239.848 22.4133 239.848 26.168C239.848 30.648 237.971 33.8693 234.216 35.832ZM216.04 21.88V32.504H224.04C226.344 32.504 228.072 32.0347 229.224 31.096C230.376 30.1573 230.952 28.792 230.952 27C230.952 25.0373 230.44 23.6933 229.416 22.968C228.435 22.2427 226.664 21.88 224.104 21.88H216.04ZM224.04 51.512C227.069 51.512 229.203 51.0853 230.44 50.232C231.72 49.336 232.36 47.8213 232.36 45.688C232.36 43.6827 231.677 42.2107 230.312 41.272C228.989 40.3333 226.92 39.864 224.104 39.864H216.04V51.512H224.04ZM271.925 59L271.093 54.968C268.063 58.168 264.415 59.768 260.149 59.768C256.778 59.768 254.026 58.8933 251.893 57.144C249.802 55.3947 248.757 53.0907 248.757 50.232C248.757 46.52 250.122 43.64 252.853 41.592C255.626 39.5013 259.615 38.456 264.821 38.456C266.698 38.456 268.575 38.5413 270.453 38.712V37.496C270.453 35.6187 269.919 34.232 268.853 33.336C267.786 32.3973 266.101 31.928 263.797 31.928C261.535 31.928 259.423 32.312 257.461 33.08C255.541 33.8053 253.45 35 251.189 36.664V29.112C253.151 27.6187 255.199 26.5307 257.333 25.848C259.466 25.1653 261.813 24.824 264.373 24.824C269.109 24.824 272.714 25.848 275.189 27.896C277.706 29.9013 278.965 32.8453 278.965 36.728V51.576L280.373 59H271.925ZM257.205 49.592C257.205 52.0667 258.613 53.304 261.429 53.304C263.05 53.304 264.586 52.984 266.037 52.344C267.487 51.6613 268.959 50.5947 270.453 49.144V44.6H264.309C261.834 44.6 260.021 44.9627 258.869 45.688C257.759 46.4133 257.205 47.7147 257.205 49.592ZM306.426 24.824V33.144H305.338C302.01 33.144 299.3 34.0613 297.21 35.896V59H288.762V33.016L287.354 25.592H295.802L296.634 30.008C298.042 28.088 299.322 26.744 300.474 25.976C301.626 25.208 302.906 24.824 304.314 24.824H306.426ZM338.485 59L337.269 54.648C335.093 56.568 333.173 57.912 331.509 58.68C329.887 59.4053 328.031 59.768 325.941 59.768C323.935 59.768 322.101 59.2987 320.437 58.36C318.815 57.4213 317.535 56.1413 316.597 54.52C315.701 52.856 315.253 51 315.253 48.952V25.592H323.701V44.152C323.701 46.84 324.127 48.8667 324.981 50.232C325.834 51.5973 327.071 52.28 328.693 52.28C330.058 52.28 331.338 51.9813 332.533 51.384C333.727 50.7867 335.007 49.8267 336.373 48.504V25.592H344.821V51.576L346.229 59H338.485Z" fill="#383E56"/>
</svg>
