<svg width="675" height="86" viewBox="0 0 675 86" fill="none" xmlns="http://www.w3.org/2000/svg">
<path d="M1 34H372V52H1V34Z" fill="#D4B5B0"/>
<path d="M15.04 21.88V33.016H34.24V39.992H15.04V51.576H35.648V59H6.592V14.456H35.648V21.88H15.04ZM70.2495 59L68.9695 54.52C67.4335 56.184 65.6415 57.464 63.5935 58.36C61.5882 59.256 59.4762 59.704 57.2575 59.704C53.3322 59.704 50.2175 58.168 47.9135 55.096C45.6522 52.024 44.5215 47.8427 44.5215 42.552C44.5215 36.9627 45.8228 32.6107 48.4255 29.496C51.0708 26.3813 54.7828 24.824 59.5615 24.824C62.6335 24.824 65.4922 25.4853 68.1375 26.808V10.744H76.5855V51.576L77.9935 59H70.2495ZM53.4175 42.424C53.4175 45.752 53.9295 48.312 54.9535 50.104C55.9775 51.896 57.4922 52.792 59.4975 52.792C62.3135 52.792 65.1935 51.384 68.1375 48.568V32.76C65.6628 32.12 63.4015 31.8 61.3535 31.8C58.6228 31.8 56.6175 32.6747 55.3375 34.424C54.0575 36.1307 53.4175 38.7973 53.4175 42.424ZM90.835 20.6C89.3843 20.6 88.147 20.1093 87.123 19.128C86.099 18.1467 85.587 16.8667 85.587 15.288C85.587 13.7093 86.099 12.4293 87.123 11.448C88.147 10.4667 89.3843 9.976 90.835 9.976C92.2857 9.976 93.523 10.4667 94.547 11.448C95.571 12.4293 96.083 13.7093 96.083 15.288C96.083 16.8667 95.571 18.1467 94.547 19.128C93.523 20.1093 92.2857 20.6 90.835 20.6ZM95.059 25.592V59H86.611V25.656L95.059 25.592ZM114.853 25.592H122.533V31.864H114.853V47.992C114.853 51.2347 116.09 52.856 118.565 52.856C119.717 52.856 121.061 52.4507 122.597 51.64V58.616C121.53 59 120.527 59.2773 119.589 59.448C118.693 59.6613 117.669 59.768 116.517 59.768C109.775 59.768 106.405 55.8427 106.405 47.992V31.864H101.541V25.592H106.405V16.632L114.853 13.688V25.592ZM176.399 48.888H157.391L153.679 59H145.231L162.127 14.456H171.983L188.879 59H180.111L176.399 48.888ZM173.775 41.72L166.927 22.776L160.015 41.72H173.775ZM211.742 59.768C208.243 59.768 205.171 59.064 202.526 57.656C199.923 56.2053 197.918 54.1787 196.51 51.576C195.102 48.9733 194.398 45.9227 194.398 42.424C194.398 38.9253 195.123 35.8533 196.574 33.208C198.025 30.52 200.051 28.4507 202.654 27C205.299 25.5493 208.329 24.824 211.742 24.824C215.582 24.824 218.825 25.6133 221.47 27.192V34.616H221.214C219.806 33.7627 218.27 33.1227 216.606 32.696C214.985 32.2693 213.47 32.056 212.062 32.056C209.118 32.056 206.899 32.9307 205.406 34.68C203.913 36.4293 203.166 39.0107 203.166 42.424C203.166 49.1653 206.089 52.536 211.934 52.536C213.47 52.536 215.027 52.3013 216.606 51.832C218.227 51.32 219.763 50.616 221.214 49.72H221.47V57.272C218.739 58.936 215.497 59.768 211.742 59.768ZM251.425 59L250.593 54.968C247.563 58.168 243.915 59.768 239.649 59.768C236.278 59.768 233.526 58.8933 231.393 57.144C229.302 55.3947 228.257 53.0907 228.257 50.232C228.257 46.52 229.622 43.64 232.353 41.592C235.126 39.5013 239.115 38.456 244.321 38.456C246.198 38.456 248.075 38.5413 249.953 38.712V37.496C249.953 35.6187 249.419 34.232 248.353 33.336C247.286 32.3973 245.601 31.928 243.297 31.928C241.035 31.928 238.923 32.312 236.961 33.08C235.041 33.8053 232.95 35 230.689 36.664V29.112C232.651 27.6187 234.699 26.5307 236.833 25.848C238.966 25.1653 241.313 24.824 243.873 24.824C248.609 24.824 252.214 25.848 254.689 27.896C257.206 29.9013 258.465 32.8453 258.465 36.728V51.576L259.873 59H251.425ZM236.705 49.592C236.705 52.0667 238.113 53.304 240.929 53.304C242.55 53.304 244.086 52.984 245.537 52.344C246.987 51.6613 248.459 50.5947 249.953 49.144V44.6H243.809C241.334 44.6 239.521 44.9627 238.369 45.688C237.259 46.4133 236.705 47.7147 236.705 49.592ZM285.926 24.824V33.144H284.838C281.51 33.144 278.8 34.0613 276.71 35.896V59H268.262V33.016L266.854 25.592H275.302L276.134 30.008C277.542 28.088 278.822 26.744 279.974 25.976C281.126 25.208 282.406 24.824 283.814 24.824H285.926ZM315.425 59L314.593 54.968C311.563 58.168 307.915 59.768 303.649 59.768C300.278 59.768 297.526 58.8933 295.393 57.144C293.302 55.3947 292.257 53.0907 292.257 50.232C292.257 46.52 293.622 43.64 296.353 41.592C299.126 39.5013 303.115 38.456 308.321 38.456C310.198 38.456 312.075 38.5413 313.953 38.712V37.496C313.953 35.6187 313.419 34.232 312.353 33.336C311.286 32.3973 309.601 31.928 307.297 31.928C305.035 31.928 302.923 32.312 300.961 33.08C299.041 33.8053 296.95 35 294.689 36.664V29.112C296.651 27.6187 298.699 26.5307 300.833 25.848C302.966 25.1653 305.313 24.824 307.873 24.824C312.609 24.824 316.214 25.848 318.689 27.896C321.206 29.9013 322.465 32.8453 322.465 36.728V51.576L323.873 59H315.425ZM300.705 49.592C300.705 52.0667 302.113 53.304 304.929 53.304C306.55 53.304 308.086 52.984 309.537 52.344C310.987 51.6613 312.459 50.5947 313.953 49.144V44.6H307.809C305.334 44.6 303.521 44.9627 302.369 45.688C301.259 46.4133 300.705 47.7147 300.705 49.592Z" fill="#383E56"/>
</svg>
