<svg width="675" height="86" viewBox="0 0 675 86" fill="none" xmlns="http://www.w3.org/2000/svg">
<path d="M1 34H366V52H1V34Z" fill="#D4B5B0"/>
<path d="M6.592 14.456H21.312C27.456 14.456 32.0427 15.7147 35.072 18.232C38.1013 20.7067 39.616 24.312 39.616 29.048C39.616 33.8267 38.1227 37.5387 35.136 40.184C32.1493 42.8293 27.7973 44.152 22.08 44.152H15.04V59H6.592V14.456ZM21.376 36.792C24.576 36.792 26.9227 36.216 28.416 35.064C29.952 33.912 30.72 31.9707 30.72 29.24C30.72 26.5947 29.9733 24.7173 28.48 23.608C26.9867 22.4987 24.5973 21.944 21.312 21.944H15.04V36.792H21.376ZM65.738 24.824V33.144H64.65C61.322 33.144 58.6127 34.0613 56.522 35.896V59H48.074V33.016L46.666 25.592H55.114L55.946 30.008C57.354 28.088 58.634 26.744 59.786 25.976C60.938 25.208 62.218 24.824 63.626 24.824H65.738ZM88.355 59.768C84.9843 59.768 82.019 59.064 79.459 57.656C76.899 56.2053 74.915 54.1573 73.507 51.512C72.1417 48.8667 71.459 45.7947 71.459 42.296C71.459 38.7973 72.1417 35.7253 73.507 33.08C74.915 30.4347 76.899 28.408 79.459 27C82.019 25.5493 84.9843 24.824 88.355 24.824C91.7257 24.824 94.691 25.5493 97.251 27C99.811 28.408 101.774 30.4347 103.139 33.08C104.547 35.7253 105.251 38.7973 105.251 42.296C105.251 45.7947 104.547 48.8667 103.139 51.512C101.774 54.1573 99.811 56.2053 97.251 57.656C94.691 59.064 91.7257 59.768 88.355 59.768ZM88.355 52.792C90.8723 52.792 92.835 51.896 94.243 50.104C95.651 48.2693 96.355 45.6667 96.355 42.296C96.355 38.8827 95.651 36.28 94.243 34.488C92.835 32.696 90.8723 31.8 88.355 31.8C85.8377 31.8 83.875 32.696 82.467 34.488C81.059 36.28 80.355 38.8827 80.355 42.296C80.355 45.6667 81.059 48.2693 82.467 50.104C83.875 51.896 85.8377 52.792 88.355 52.792ZM115.277 31.864H110.285V25.592H115.277V21.752C115.277 17.784 116.194 14.84 118.029 12.92C119.863 10.9573 122.53 9.976 126.029 9.976C127.351 9.976 128.482 10.104 129.421 10.36C130.359 10.616 131.277 11 132.173 11.512V18.488C130.295 17.5067 128.61 17.016 127.117 17.016C125.879 17.016 125.005 17.3787 124.493 18.104C123.981 18.7867 123.725 20.0027 123.725 21.752V25.592H131.533V31.864H123.725V59H115.277V31.864ZM140.812 20.6C139.362 20.6 138.125 20.1093 137.101 19.128C136.077 18.1467 135.565 16.8667 135.565 15.288C135.565 13.7093 136.077 12.4293 137.101 11.448C138.125 10.4667 139.362 9.976 140.812 9.976C142.263 9.976 143.501 10.4667 144.525 11.448C145.549 12.4293 146.061 13.7093 146.061 15.288C146.061 16.8667 145.549 18.1467 144.525 19.128C143.501 20.1093 142.263 20.6 140.812 20.6ZM145.037 25.592V59H136.589V25.656L145.037 25.592ZM154.486 10.744H162.934V59H154.486V10.744ZM218.841 35.832C221.145 36.8133 222.894 38.2 224.089 39.992C225.284 41.784 225.881 43.96 225.881 46.52C225.881 50.5733 224.409 53.6667 221.465 55.8C218.521 57.9333 214.254 59 208.665 59H192.217V14.456H209.433C214.254 14.456 217.966 15.48 220.569 17.528C223.172 19.5333 224.473 22.4133 224.473 26.168C224.473 30.648 222.596 33.8693 218.841 35.832ZM200.665 21.88V32.504H208.665C210.969 32.504 212.697 32.0347 213.849 31.096C215.001 30.1573 215.577 28.792 215.577 27C215.577 25.0373 215.065 23.6933 214.041 22.968C213.06 22.2427 211.289 21.88 208.729 21.88H200.665ZM208.665 51.512C211.694 51.512 213.828 51.0853 215.065 50.232C216.345 49.336 216.985 47.8213 216.985 45.688C216.985 43.6827 216.302 42.2107 214.937 41.272C213.614 40.3333 211.545 39.864 208.729 39.864H200.665V51.512H208.665ZM239.398 20.6C237.947 20.6 236.71 20.1093 235.686 19.128C234.662 18.1467 234.15 16.8667 234.15 15.288C234.15 13.7093 234.662 12.4293 235.686 11.448C236.71 10.4667 237.947 9.976 239.398 9.976C240.848 9.976 242.086 10.4667 243.11 11.448C244.134 12.4293 244.646 13.7093 244.646 15.288C244.646 16.8667 244.134 18.1467 243.11 19.128C242.086 20.1093 240.848 20.6 239.398 20.6ZM243.622 25.592V59H235.174V25.656L243.622 25.592ZM263.799 59.768C261.58 59.768 259.404 59.4693 257.271 58.872C255.138 58.232 253.132 57.336 251.255 56.184V48.184C253.303 49.72 255.244 50.8507 257.079 51.576C258.914 52.3013 260.898 52.664 263.031 52.664C265.207 52.664 266.807 52.3867 267.831 51.832C268.898 51.2773 269.431 50.424 269.431 49.272C269.431 48.1627 268.919 47.352 267.895 46.84C266.914 46.2853 265.335 45.752 263.159 45.24C260.77 44.6427 258.828 44.0453 257.335 43.448C255.842 42.808 254.54 41.784 253.431 40.376C252.364 38.968 251.831 37.0693 251.831 34.68C251.831 31.6933 253.047 29.304 255.479 27.512C257.954 25.72 261.26 24.824 265.399 24.824C267.404 24.824 269.26 25.0587 270.967 25.528C272.674 25.9547 274.423 26.68 276.215 27.704V35.512C274.38 34.232 272.674 33.3147 271.095 32.76C269.516 32.2053 267.831 31.928 266.039 31.928C264.076 31.928 262.562 32.184 261.495 32.696C260.428 33.1653 259.895 33.8693 259.895 34.808C259.895 35.7467 260.343 36.4507 261.239 36.92C262.178 37.3467 263.65 37.7947 265.655 38.264C268.044 38.776 270.028 39.3733 271.607 40.056C273.228 40.696 274.615 41.7627 275.767 43.256C276.919 44.7067 277.495 46.7333 277.495 49.336C277.495 51.3413 276.919 53.1547 275.767 54.776C274.615 56.3547 272.994 57.592 270.903 58.488C268.812 59.3413 266.444 59.768 263.799 59.768ZM304.375 24.824C307.746 24.824 310.455 25.8267 312.503 27.832C314.594 29.7947 315.639 32.3973 315.639 35.64V59H307.191V40.44C307.191 37.5387 306.743 35.4693 305.847 34.232C304.994 32.952 303.564 32.312 301.559 32.312C299.34 32.312 296.994 33.5493 294.519 36.024V59H286.071V33.016L284.663 25.592H292.407L293.623 29.88C295.458 28.088 297.228 26.808 298.935 26.04C300.642 25.2293 302.455 24.824 304.375 24.824ZM330.273 20.6C328.822 20.6 327.585 20.1093 326.561 19.128C325.537 18.1467 325.025 16.8667 325.025 15.288C325.025 13.7093 325.537 12.4293 326.561 11.448C327.585 10.4667 328.822 9.976 330.273 9.976C331.723 9.976 332.961 10.4667 333.985 11.448C335.009 12.4293 335.521 13.7093 335.521 15.288C335.521 16.8667 335.009 18.1467 333.985 19.128C332.961 20.1093 331.723 20.6 330.273 20.6ZM334.497 25.592V59H326.049V25.656L334.497 25.592ZM354.674 59.768C352.455 59.768 350.279 59.4693 348.146 58.872C346.013 58.232 344.007 57.336 342.13 56.184V48.184C344.178 49.72 346.119 50.8507 347.954 51.576C349.789 52.3013 351.773 52.664 353.906 52.664C356.082 52.664 357.682 52.3867 358.706 51.832C359.773 51.2773 360.306 50.424 360.306 49.272C360.306 48.1627 359.794 47.352 358.77 46.84C357.789 46.2853 356.21 45.752 354.034 45.24C351.645 44.6427 349.703 44.0453 348.21 43.448C346.717 42.808 345.415 41.784 344.306 40.376C343.239 38.968 342.706 37.0693 342.706 34.68C342.706 31.6933 343.922 29.304 346.354 27.512C348.829 25.72 352.135 24.824 356.274 24.824C358.279 24.824 360.135 25.0587 361.842 25.528C363.549 25.9547 365.298 26.68 367.09 27.704V35.512C365.255 34.232 363.549 33.3147 361.97 32.76C360.391 32.2053 358.706 31.928 356.914 31.928C354.951 31.928 353.437 32.184 352.37 32.696C351.303 33.1653 350.77 33.8693 350.77 34.808C350.77 35.7467 351.218 36.4507 352.114 36.92C353.053 37.3467 354.525 37.7947 356.53 38.264C358.919 38.776 360.903 39.3733 362.482 40.056C364.103 40.696 365.49 41.7627 366.642 43.256C367.794 44.7067 368.37 46.7333 368.37 49.336C368.37 51.3413 367.794 53.1547 366.642 54.776C365.49 56.3547 363.869 57.592 361.778 58.488C359.687 59.3413 357.319 59.768 354.674 59.768Z" fill="#383E56"/>
</svg>
