<svg width="675" height="86" viewBox="0 0 675 86" fill="none" xmlns="http://www.w3.org/2000/svg">
<path d="M1 34H372V52H1V34Z" fill="#D4B5B0"/>
<path d="M33.024 48.888H14.016L10.304 59H1.856L18.752 14.456H28.608L45.504 59H36.736L33.024 48.888ZM30.4 41.72L23.552 22.776L16.64 41.72H30.4ZM68.367 59.768C64.8683 59.768 61.7963 59.064 59.151 57.656C56.5483 56.2053 54.543 54.1787 53.135 51.576C51.727 48.9733 51.023 45.9227 51.023 42.424C51.023 38.9253 51.7483 35.8533 53.199 33.208C54.6497 30.52 56.6763 28.4507 59.279 27C61.9243 25.5493 64.9537 24.824 68.367 24.824C72.207 24.824 75.4497 25.6133 78.095 27.192V34.616H77.839C76.431 33.7627 74.895 33.1227 73.231 32.696C71.6097 32.2693 70.095 32.056 68.687 32.056C65.743 32.056 63.5243 32.9307 62.031 34.68C60.5377 36.4293 59.791 39.0107 59.791 42.424C59.791 49.1653 62.7137 52.536 68.559 52.536C70.095 52.536 71.6523 52.3013 73.231 51.832C74.8523 51.32 76.3883 50.616 77.839 49.72H78.095V57.272C75.3643 58.936 72.1217 59.768 68.367 59.768ZM108.05 59L107.218 54.968C104.188 58.168 100.54 59.768 96.2735 59.768C92.9028 59.768 90.1508 58.8933 88.0175 57.144C85.9268 55.3947 84.8815 53.0907 84.8815 50.232C84.8815 46.52 86.2468 43.64 88.9775 41.592C91.7508 39.5013 95.7402 38.456 100.946 38.456C102.823 38.456 104.7 38.5413 106.578 38.712V37.496C106.578 35.6187 106.044 34.232 104.978 33.336C103.911 32.3973 102.226 31.928 99.9215 31.928C97.6602 31.928 95.5482 32.312 93.5855 33.08C91.6655 33.8053 89.5748 35 87.3135 36.664V29.112C89.2762 27.6187 91.3242 26.5307 93.4575 25.848C95.5908 25.1653 97.9375 24.824 100.498 24.824C105.234 24.824 108.839 25.848 111.314 27.896C113.831 29.9013 115.09 32.8453 115.09 36.728V51.576L116.498 59H108.05ZM93.3295 49.592C93.3295 52.0667 94.7375 53.304 97.5535 53.304C99.1748 53.304 100.711 52.984 102.162 52.344C103.612 51.6613 105.084 50.5947 106.578 49.144V44.6H100.434C97.9588 44.6 96.1455 44.9627 94.9935 45.688C93.8842 46.4133 93.3295 47.7147 93.3295 49.592ZM142.551 24.824V33.144H141.463C138.135 33.144 135.425 34.0613 133.335 35.896V59H124.887V33.016L123.479 25.592H131.927L132.759 30.008C134.167 28.088 135.447 26.744 136.599 25.976C137.751 25.208 139.031 24.824 140.439 24.824H142.551ZM172.05 59L171.218 54.968C168.188 58.168 164.54 59.768 160.274 59.768C156.903 59.768 154.151 58.8933 152.018 57.144C149.927 55.3947 148.882 53.0907 148.882 50.232C148.882 46.52 150.247 43.64 152.978 41.592C155.751 39.5013 159.74 38.456 164.946 38.456C166.823 38.456 168.7 38.5413 170.578 38.712V37.496C170.578 35.6187 170.044 34.232 168.978 33.336C167.911 32.3973 166.226 31.928 163.922 31.928C161.66 31.928 159.548 32.312 157.586 33.08C155.666 33.8053 153.575 35 151.314 36.664V29.112C153.276 27.6187 155.324 26.5307 157.458 25.848C159.591 25.1653 161.938 24.824 164.498 24.824C169.234 24.824 172.839 25.848 175.314 27.896C177.831 29.9013 179.09 32.8453 179.09 36.728V51.576L180.498 59H172.05ZM157.33 49.592C157.33 52.0667 158.738 53.304 161.554 53.304C163.175 53.304 164.711 52.984 166.162 52.344C167.612 51.6613 169.084 50.5947 170.578 49.144V44.6H164.434C161.959 44.6 160.146 44.9627 158.994 45.688C157.884 46.4133 157.33 47.7147 157.33 49.592ZM207.592 14.456H216.04V51.576H234.792V59H207.592V14.456ZM264.237 59L263.405 54.968C260.376 58.168 256.728 59.768 252.461 59.768C249.09 59.768 246.338 58.8933 244.205 57.144C242.114 55.3947 241.069 53.0907 241.069 50.232C241.069 46.52 242.434 43.64 245.165 41.592C247.938 39.5013 251.928 38.456 257.133 38.456C259.01 38.456 260.888 38.5413 262.765 38.712V37.496C262.765 35.6187 262.232 34.232 261.165 33.336C260.098 32.3973 258.413 31.928 256.109 31.928C253.848 31.928 251.736 32.312 249.773 33.08C247.853 33.8053 245.762 35 243.501 36.664V29.112C245.464 27.6187 247.512 26.5307 249.645 25.848C251.778 25.1653 254.125 24.824 256.685 24.824C261.421 24.824 265.026 25.848 267.501 27.896C270.018 29.9013 271.277 32.8453 271.277 36.728V51.576L272.685 59H264.237ZM249.517 49.592C249.517 52.0667 250.925 53.304 253.741 53.304C255.362 53.304 256.898 52.984 258.349 52.344C259.8 51.6613 261.272 50.5947 262.765 49.144V44.6H256.621C254.146 44.6 252.333 44.9627 251.181 45.688C250.072 46.4133 249.517 47.7147 249.517 49.592ZM284.21 20.6C282.759 20.6 281.522 20.1093 280.498 19.128C279.474 18.1467 278.962 16.8667 278.962 15.288C278.962 13.7093 279.474 12.4293 280.498 11.448C281.522 10.4667 282.759 9.976 284.21 9.976C285.661 9.976 286.898 10.4667 287.922 11.448C288.946 12.4293 289.458 13.7093 289.458 15.288C289.458 16.8667 288.946 18.1467 287.922 19.128C286.898 20.1093 285.661 20.6 284.21 20.6ZM288.434 25.592V59H279.986V25.656L288.434 25.592ZM317.188 24.824C320.558 24.824 323.268 25.8267 325.316 27.832C327.406 29.7947 328.451 32.3973 328.451 35.64V59H320.004V40.44C320.004 37.5387 319.556 35.4693 318.66 34.232C317.806 32.952 316.377 32.312 314.372 32.312C312.153 32.312 309.806 33.5493 307.332 36.024V59H298.884V33.016L297.476 25.592H305.22L306.436 29.88C308.27 28.088 310.041 26.808 311.748 26.04C313.454 25.2293 315.268 24.824 317.188 24.824Z" fill="#383E56"/>
</svg>
