<svg width="675" height="86" viewBox="0 0 675 86" fill="none" xmlns="http://www.w3.org/2000/svg">
<path d="M1 34H372V52H1V34Z" fill="#D4B5B0"/>
<path d="M28.544 59.768C23.6373 59.768 19.4133 58.8293 15.872 56.952C12.3733 55.0747 9.68533 52.408 7.808 48.952C5.97333 45.4533 5.056 41.3787 5.056 36.728C5.056 32.0773 5.99467 28.024 7.872 24.568C9.74933 21.0693 12.48 18.3813 16.064 16.504C19.648 14.6267 23.936 13.688 28.928 13.688C31.0187 13.688 33.0667 13.9013 35.072 14.328C37.12 14.712 38.9547 15.3093 40.576 16.12V23.928H40.32C38.6987 22.9893 36.928 22.2853 35.008 21.816C33.1307 21.3467 31.3387 21.112 29.632 21.112C24.768 21.112 20.928 22.456 18.112 25.144C15.3387 27.832 13.952 31.6933 13.952 36.728C13.952 41.72 15.3173 45.56 18.048 48.248C20.7787 50.936 24.512 52.28 29.248 52.28C31.0827 52.28 32.9387 52.0027 34.816 51.448C36.736 50.8507 38.5707 50.0187 40.32 48.952H40.576V56.824C37.1627 58.7867 33.152 59.768 28.544 59.768ZM72.1745 59L71.3425 54.968C68.3132 58.168 64.6652 59.768 60.3985 59.768C57.0278 59.768 54.2758 58.8933 52.1425 57.144C50.0518 55.3947 49.0065 53.0907 49.0065 50.232C49.0065 46.52 50.3718 43.64 53.1025 41.592C55.8758 39.5013 59.8652 38.456 65.0705 38.456C66.9478 38.456 68.8252 38.5413 70.7025 38.712V37.496C70.7025 35.6187 70.1692 34.232 69.1025 33.336C68.0358 32.3973 66.3505 31.928 64.0465 31.928C61.7852 31.928 59.6732 32.312 57.7105 33.08C55.7905 33.8053 53.6998 35 51.4385 36.664V29.112C53.4012 27.6187 55.4492 26.5307 57.5825 25.848C59.7158 25.1653 62.0625 24.824 64.6225 24.824C69.3585 24.824 72.9638 25.848 75.4385 27.896C77.9558 29.9013 79.2145 32.8453 79.2145 36.728V51.576L80.6225 59H72.1745ZM57.4545 49.592C57.4545 52.0667 58.8625 53.304 61.6785 53.304C63.2998 53.304 64.8358 52.984 66.2865 52.344C67.7372 51.6613 69.2092 50.5947 70.7025 49.144V44.6H64.5585C62.0838 44.6 60.2705 44.9627 59.1185 45.688C58.0092 46.4133 57.4545 47.7147 57.4545 49.592ZM106.676 24.824V33.144H105.588C102.26 33.144 99.5502 34.0613 97.4595 35.896V59H89.0115V33.016L87.6035 25.592H96.0515L96.8835 30.008C98.2915 28.088 99.5715 26.744 100.724 25.976C101.876 25.208 103.156 24.824 104.564 24.824H106.676ZM119.023 20.6C117.572 20.6 116.335 20.1093 115.311 19.128C114.287 18.1467 113.775 16.8667 113.775 15.288C113.775 13.7093 114.287 12.4293 115.311 11.448C116.335 10.4667 117.572 9.976 119.023 9.976C120.473 9.976 121.711 10.4667 122.735 11.448C123.759 12.4293 124.271 13.7093 124.271 15.288C124.271 16.8667 123.759 18.1467 122.735 19.128C121.711 20.1093 120.473 20.6 119.023 20.6ZM123.247 25.592V59H114.799V25.656L123.247 25.592ZM202.066 59H193.618V25.144L181.842 59H173.01L160.978 25.208V59H152.53V14.456H165.778L177.554 47.48L189.01 14.456H202.066V59ZM217.648 20.6C216.197 20.6 214.96 20.1093 213.936 19.128C212.912 18.1467 212.4 16.8667 212.4 15.288C212.4 13.7093 212.912 12.4293 213.936 11.448C214.96 10.4667 216.197 9.976 217.648 9.976C219.098 9.976 220.336 10.4667 221.36 11.448C222.384 12.4293 222.896 13.7093 222.896 15.288C222.896 16.8667 222.384 18.1467 221.36 19.128C220.336 20.1093 219.098 20.6 217.648 20.6ZM221.872 25.592V59H213.424V25.656L221.872 25.592ZM241.665 25.592H249.345V31.864H241.665V47.992C241.665 51.2347 242.902 52.856 245.377 52.856C246.529 52.856 247.873 52.4507 249.409 51.64V58.616C248.342 59 247.34 59.2773 246.401 59.448C245.505 59.6613 244.481 59.768 243.329 59.768C236.588 59.768 233.217 55.8427 233.217 47.992V31.864H228.353V25.592H233.217V16.632L241.665 13.688V25.592ZM275.738 24.824V33.144H274.65C271.322 33.144 268.613 34.0613 266.522 35.896V59H258.074V33.016L256.666 25.592H265.114L265.946 30.008C267.354 28.088 268.634 26.744 269.786 25.976C270.938 25.208 272.218 24.824 273.626 24.824H275.738ZM305.237 59L304.405 54.968C301.376 58.168 297.728 59.768 293.461 59.768C290.09 59.768 287.338 58.8933 285.205 57.144C283.114 55.3947 282.069 53.0907 282.069 50.232C282.069 46.52 283.434 43.64 286.165 41.592C288.938 39.5013 292.928 38.456 298.133 38.456C300.01 38.456 301.888 38.5413 303.765 38.712V37.496C303.765 35.6187 303.232 34.232 302.165 33.336C301.098 32.3973 299.413 31.928 297.109 31.928C294.848 31.928 292.736 32.312 290.773 33.08C288.853 33.8053 286.762 35 284.501 36.664V29.112C286.464 27.6187 288.512 26.5307 290.645 25.848C292.778 25.1653 295.125 24.824 297.685 24.824C302.421 24.824 306.026 25.848 308.501 27.896C311.018 29.9013 312.277 32.8453 312.277 36.728V51.576L313.685 59H305.237ZM290.517 49.592C290.517 52.0667 291.925 53.304 294.741 53.304C296.362 53.304 297.898 52.984 299.349 52.344C300.8 51.6613 302.272 50.5947 303.765 49.144V44.6H297.621C295.146 44.6 293.333 44.9627 292.181 45.688C291.072 46.4133 290.517 47.7147 290.517 49.592Z" fill="#383E56"/>
</svg>
