<svg width="675" height="86" viewBox="0 0 675 86" fill="none" xmlns="http://www.w3.org/2000/svg">
<path d="M1 34H372V52H1V34Z" fill="#D4B5B0"/>
<path d="M33.024 48.888H14.016L10.304 59H1.856L18.752 14.456H28.608L45.504 59H36.736L33.024 48.888ZM30.4 41.72L23.552 22.776L16.64 41.72H30.4ZM68.367 59.768C64.8683 59.768 61.7963 59.064 59.151 57.656C56.5483 56.2053 54.543 54.1787 53.135 51.576C51.727 48.9733 51.023 45.9227 51.023 42.424C51.023 38.9253 51.7483 35.8533 53.199 33.208C54.6497 30.52 56.6763 28.4507 59.279 27C61.9243 25.5493 64.9537 24.824 68.367 24.824C72.207 24.824 75.4497 25.6133 78.095 27.192V34.616H77.839C76.431 33.7627 74.895 33.1227 73.231 32.696C71.6097 32.2693 70.095 32.056 68.687 32.056C65.743 32.056 63.5243 32.9307 62.031 34.68C60.5377 36.4293 59.791 39.0107 59.791 42.424C59.791 49.1653 62.7137 52.536 68.559 52.536C70.095 52.536 71.6523 52.3013 73.231 51.832C74.8523 51.32 76.3883 50.616 77.839 49.72H78.095V57.272C75.3643 58.936 72.1217 59.768 68.367 59.768ZM108.05 59L107.218 54.968C104.188 58.168 100.54 59.768 96.2735 59.768C92.9028 59.768 90.1508 58.8933 88.0175 57.144C85.9268 55.3947 84.8815 53.0907 84.8815 50.232C84.8815 46.52 86.2468 43.64 88.9775 41.592C91.7508 39.5013 95.7402 38.456 100.946 38.456C102.823 38.456 104.7 38.5413 106.578 38.712V37.496C106.578 35.6187 106.044 34.232 104.978 33.336C103.911 32.3973 102.226 31.928 99.9215 31.928C97.6602 31.928 95.5482 32.312 93.5855 33.08C91.6655 33.8053 89.5748 35 87.3135 36.664V29.112C89.2762 27.6187 91.3242 26.5307 93.4575 25.848C95.5908 25.1653 97.9375 24.824 100.498 24.824C105.234 24.824 108.839 25.848 111.314 27.896C113.831 29.9013 115.09 32.8453 115.09 36.728V51.576L116.498 59H108.05ZM93.3295 49.592C93.3295 52.0667 94.7375 53.304 97.5535 53.304C99.1748 53.304 100.711 52.984 102.162 52.344C103.612 51.6613 105.084 50.5947 106.578 49.144V44.6H100.434C97.9588 44.6 96.1455 44.9627 94.9935 45.688C93.8842 46.4133 93.3295 47.7147 93.3295 49.592ZM142.551 24.824V33.144H141.463C138.135 33.144 135.425 34.0613 133.335 35.896V59H124.887V33.016L123.479 25.592H131.927L132.759 30.008C134.167 28.088 135.447 26.744 136.599 25.976C137.751 25.208 139.031 24.824 140.439 24.824H142.551ZM172.05 59L171.218 54.968C168.188 58.168 164.54 59.768 160.274 59.768C156.903 59.768 154.151 58.8933 152.018 57.144C149.927 55.3947 148.882 53.0907 148.882 50.232C148.882 46.52 150.247 43.64 152.978 41.592C155.751 39.5013 159.74 38.456 164.946 38.456C166.823 38.456 168.7 38.5413 170.578 38.712V37.496C170.578 35.6187 170.044 34.232 168.978 33.336C167.911 32.3973 166.226 31.928 163.922 31.928C161.66 31.928 159.548 32.312 157.586 33.08C155.666 33.8053 153.575 35 151.314 36.664V29.112C153.276 27.6187 155.324 26.5307 157.458 25.848C159.591 25.1653 161.938 24.824 164.498 24.824C169.234 24.824 172.839 25.848 175.314 27.896C177.831 29.9013 179.09 32.8453 179.09 36.728V51.576L180.498 59H172.05ZM157.33 49.592C157.33 52.0667 158.738 53.304 161.554 53.304C163.175 53.304 164.711 52.984 166.162 52.344C167.612 51.6613 169.084 50.5947 170.578 49.144V44.6H164.434C161.959 44.6 160.146 44.9627 158.994 45.688C157.884 46.4133 157.33 47.7147 157.33 49.592ZM234.024 48.888H215.016L211.304 59H202.856L219.752 14.456H229.608L246.504 59H237.736L234.024 48.888ZM231.4 41.72L224.552 22.776L217.64 41.72H231.4ZM272.375 24.824C275.746 24.824 278.455 25.8267 280.503 27.832C282.594 29.7947 283.639 32.3973 283.639 35.64V59H275.191V40.44C275.191 37.5387 274.743 35.4693 273.847 34.232C272.994 32.952 271.564 32.312 269.559 32.312C267.34 32.312 264.994 33.5493 262.519 36.024V59H254.071V33.016L252.663 25.592H260.407L261.623 29.88C263.458 28.088 265.228 26.808 266.935 26.04C268.642 25.2293 270.455 24.824 272.375 24.824ZM318.625 59L317.345 54.52C315.809 56.184 314.017 57.464 311.969 58.36C309.963 59.256 307.851 59.704 305.633 59.704C301.707 59.704 298.593 58.168 296.289 55.096C294.027 52.024 292.897 47.8427 292.897 42.552C292.897 36.9627 294.198 32.6107 296.801 29.496C299.446 26.3813 303.158 24.824 307.937 24.824C311.009 24.824 313.867 25.4853 316.513 26.808V10.744H324.961V51.576L326.369 59H318.625ZM301.793 42.424C301.793 45.752 302.305 48.312 303.329 50.104C304.353 51.896 305.867 52.792 307.873 52.792C310.689 52.792 313.569 51.384 316.513 48.568V32.76C314.038 32.12 311.777 31.8 309.729 31.8C306.998 31.8 304.993 32.6747 303.713 34.424C302.433 36.1307 301.793 38.7973 301.793 42.424ZM356.362 59L355.53 54.968C352.501 58.168 348.853 59.768 344.586 59.768C341.215 59.768 338.463 58.8933 336.33 57.144C334.239 55.3947 333.194 53.0907 333.194 50.232C333.194 46.52 334.559 43.64 337.29 41.592C340.063 39.5013 344.053 38.456 349.258 38.456C351.135 38.456 353.013 38.5413 354.89 38.712V37.496C354.89 35.6187 354.357 34.232 353.29 33.336C352.223 32.3973 350.538 31.928 348.234 31.928C345.973 31.928 343.861 32.312 341.898 33.08C339.978 33.8053 337.887 35 335.626 36.664V29.112C337.589 27.6187 339.637 26.5307 341.77 25.848C343.903 25.1653 346.25 24.824 348.81 24.824C353.546 24.824 357.151 25.848 359.626 27.896C362.143 29.9013 363.402 32.8453 363.402 36.728V51.576L364.81 59H356.362ZM341.642 49.592C341.642 52.0667 343.05 53.304 345.866 53.304C347.487 53.304 349.023 52.984 350.474 52.344C351.925 51.6613 353.397 50.5947 354.89 49.144V44.6H348.746C346.271 44.6 344.458 44.9627 343.306 45.688C342.197 46.4133 341.642 47.7147 341.642 49.592Z" fill="#383E56"/>
</svg>
