<svg width="772" height="96" viewBox="0 0 772 96" fill="none" xmlns="http://www.w3.org/2000/svg">
<path d="M1.05603 38.0835H211.215V58.2454H1.05603V38.0835Z" fill="#D4B5B0"/>
<path d="M23.04 14.456C27.6053 14.456 31.5307 15.3733 34.816 17.208C38.1013 19 40.5973 21.5813 42.304 24.952C44.0107 28.28 44.864 32.2053 44.864 36.728C44.864 41.2507 44.0107 45.1973 42.304 48.568C40.5973 51.896 38.1013 54.4773 34.816 56.312C31.5307 58.104 27.6053 59 23.04 59H6.592V14.456H23.04ZM23.04 51.512C27.0933 51.512 30.2507 50.2533 32.512 47.736C34.816 45.2187 35.968 41.5493 35.968 36.728C35.968 31.9067 34.816 28.2373 32.512 25.72C30.2507 23.2027 27.0933 21.944 23.04 21.944H15.04V51.512H23.04ZM76.0495 59L75.2175 54.968C72.1882 58.168 68.5402 59.768 64.2735 59.768C60.9028 59.768 58.1508 58.8933 56.0175 57.144C53.9268 55.3947 52.8815 53.0907 52.8815 50.232C52.8815 46.52 54.2468 43.64 56.9775 41.592C59.7508 39.5013 63.7402 38.456 68.9455 38.456C70.8228 38.456 72.7002 38.5413 74.5775 38.712V37.496C74.5775 35.6187 74.0442 34.232 72.9775 33.336C71.9108 32.3973 70.2255 31.928 67.9215 31.928C65.6602 31.928 63.5482 32.312 61.5855 33.08C59.6655 33.8053 57.5748 35 55.3135 36.664V29.112C57.2762 27.6187 59.3242 26.5307 61.4575 25.848C63.5908 25.1653 65.9375 24.824 68.4975 24.824C73.2335 24.824 76.8388 25.848 79.3135 27.896C81.8308 29.9013 83.0895 32.8453 83.0895 36.728V51.576L84.4975 59H76.0495ZM61.3295 49.592C61.3295 52.0667 62.7375 53.304 65.5535 53.304C67.1748 53.304 68.7108 52.984 70.1615 52.344C71.6122 51.6613 73.0842 50.5947 74.5775 49.144V44.6H68.4335C65.9588 44.6 64.1455 44.9627 62.9935 45.688C61.8842 46.4133 61.3295 47.7147 61.3295 49.592ZM93.5265 31.864H88.5345V25.592H93.5265V21.752C93.5265 17.784 94.4438 14.84 96.2785 12.92C98.1132 10.9573 100.78 9.976 104.279 9.976C105.601 9.976 106.732 10.104 107.671 10.36C108.609 10.616 109.527 11 110.423 11.512V18.488C108.545 17.5067 106.86 17.016 105.367 17.016C104.129 17.016 103.255 17.3787 102.743 18.104C102.231 18.7867 101.975 20.0027 101.975 21.752V25.592H109.783V31.864H101.975V59H93.5265V31.864ZM125.165 25.592H132.845V31.864H125.165V47.992C125.165 51.2347 126.402 52.856 128.877 52.856C130.029 52.856 131.373 52.4507 132.909 51.64V58.616C131.842 59 130.84 59.2773 129.901 59.448C129.005 59.6613 127.981 59.768 126.829 59.768C120.088 59.768 116.717 55.8427 116.717 47.992V31.864H111.853V25.592H116.717V16.632L125.165 13.688V25.592ZM161.862 59L161.03 54.968C158.001 58.168 154.353 59.768 150.086 59.768C146.715 59.768 143.963 58.8933 141.83 57.144C139.739 55.3947 138.694 53.0907 138.694 50.232C138.694 46.52 140.059 43.64 142.79 41.592C145.563 39.5013 149.553 38.456 154.758 38.456C156.635 38.456 158.513 38.5413 160.39 38.712V37.496C160.39 35.6187 159.857 34.232 158.79 33.336C157.723 32.3973 156.038 31.928 153.734 31.928C151.473 31.928 149.361 32.312 147.398 33.08C145.478 33.8053 143.387 35 141.126 36.664V29.112C143.089 27.6187 145.137 26.5307 147.27 25.848C149.403 25.1653 151.75 24.824 154.31 24.824C159.046 24.824 162.651 25.848 165.126 27.896C167.643 29.9013 168.902 32.8453 168.902 36.728V51.576L170.31 59H161.862ZM147.142 49.592C147.142 52.0667 148.55 53.304 151.366 53.304C152.987 53.304 154.523 52.984 155.974 52.344C157.425 51.6613 158.897 50.5947 160.39 49.144V44.6H154.246C151.771 44.6 149.958 44.9627 148.806 45.688C147.697 46.4133 147.142 47.7147 147.142 49.592ZM196.363 24.824V33.144H195.275C191.947 33.144 189.238 34.0613 187.147 35.896V59H178.699V33.016L177.291 25.592H185.739L186.571 30.008C187.979 28.088 189.259 26.744 190.411 25.976C191.563 25.208 192.843 24.824 194.251 24.824H196.363Z" fill="#383E56"/>
</svg>
