<svg width="731" height="86" viewBox="0 0 731 86" fill="none" xmlns="http://www.w3.org/2000/svg">
<path d="M1 34H501V52H1V34Z" fill="#D4B5B0"/>
<path d="M33.024 48.888H14.016L10.304 59H1.856L18.752 14.456H28.608L45.504 59H36.736L33.024 48.888ZM30.4 41.72L23.552 22.776L16.64 41.72H30.4ZM68.367 59.768C64.8683 59.768 61.7963 59.064 59.151 57.656C56.5483 56.2053 54.543 54.1787 53.135 51.576C51.727 48.9733 51.023 45.9227 51.023 42.424C51.023 38.9253 51.7483 35.8533 53.199 33.208C54.6497 30.52 56.6763 28.4507 59.279 27C61.9243 25.5493 64.9537 24.824 68.367 24.824C72.207 24.824 75.4497 25.6133 78.095 27.192V34.616H77.839C76.431 33.7627 74.895 33.1227 73.231 32.696C71.6097 32.2693 70.095 32.056 68.687 32.056C65.743 32.056 63.5243 32.9307 62.031 34.68C60.5377 36.4293 59.791 39.0107 59.791 42.424C59.791 49.1653 62.7137 52.536 68.559 52.536C70.095 52.536 71.6523 52.3013 73.231 51.832C74.8523 51.32 76.3883 50.616 77.839 49.72H78.095V57.272C75.3643 58.936 72.1217 59.768 68.367 59.768ZM108.05 59L107.218 54.968C104.188 58.168 100.54 59.768 96.2735 59.768C92.9028 59.768 90.1508 58.8933 88.0175 57.144C85.9268 55.3947 84.8815 53.0907 84.8815 50.232C84.8815 46.52 86.2468 43.64 88.9775 41.592C91.7508 39.5013 95.7402 38.456 100.946 38.456C102.823 38.456 104.7 38.5413 106.578 38.712V37.496C106.578 35.6187 106.044 34.232 104.978 33.336C103.911 32.3973 102.226 31.928 99.9215 31.928C97.6602 31.928 95.5482 32.312 93.5855 33.08C91.6655 33.8053 89.5748 35 87.3135 36.664V29.112C89.2762 27.6187 91.3242 26.5307 93.4575 25.848C95.5908 25.1653 97.9375 24.824 100.498 24.824C105.234 24.824 108.839 25.848 111.314 27.896C113.831 29.9013 115.09 32.8453 115.09 36.728V51.576L116.498 59H108.05ZM93.3295 49.592C93.3295 52.0667 94.7375 53.304 97.5535 53.304C99.1748 53.304 100.711 52.984 102.162 52.344C103.612 51.6613 105.084 50.5947 106.578 49.144V44.6H100.434C97.9588 44.6 96.1455 44.9627 94.9935 45.688C93.8842 46.4133 93.3295 47.7147 93.3295 49.592ZM142.551 24.824V33.144H141.463C138.135 33.144 135.425 34.0613 133.335 35.896V59H124.887V33.016L123.479 25.592H131.927L132.759 30.008C134.167 28.088 135.447 26.744 136.599 25.976C137.751 25.208 139.031 24.824 140.439 24.824H142.551ZM172.05 59L171.218 54.968C168.188 58.168 164.54 59.768 160.274 59.768C156.903 59.768 154.151 58.8933 152.018 57.144C149.927 55.3947 148.882 53.0907 148.882 50.232C148.882 46.52 150.247 43.64 152.978 41.592C155.751 39.5013 159.74 38.456 164.946 38.456C166.823 38.456 168.7 38.5413 170.578 38.712V37.496C170.578 35.6187 170.044 34.232 168.978 33.336C167.911 32.3973 166.226 31.928 163.922 31.928C161.66 31.928 159.548 32.312 157.586 33.08C155.666 33.8053 153.575 35 151.314 36.664V29.112C153.276 27.6187 155.324 26.5307 157.458 25.848C159.591 25.1653 161.938 24.824 164.498 24.824C169.234 24.824 172.839 25.848 175.314 27.896C177.831 29.9013 179.09 32.8453 179.09 36.728V51.576L180.498 59H172.05ZM157.33 49.592C157.33 52.0667 158.738 53.304 161.554 53.304C163.175 53.304 164.711 52.984 166.162 52.344C167.612 51.6613 169.084 50.5947 170.578 49.144V44.6H164.434C161.959 44.6 160.146 44.9627 158.994 45.688C157.884 46.4133 157.33 47.7147 157.33 49.592ZM217.256 22.2H204.584V14.456H238.376V22.2H225.704V59H217.256V22.2ZM273.325 44.856H250.093C250.434 47.416 251.373 49.3787 252.909 50.744C254.488 52.1093 256.578 52.792 259.181 52.792C261.101 52.792 263.17 52.4507 265.389 51.768C267.65 51.0427 269.741 50.0613 271.661 48.824H271.917V55.672C270.21 56.9947 268.248 58.0187 266.029 58.744C263.853 59.4267 261.549 59.768 259.117 59.768C255.618 59.768 252.568 59.064 249.965 57.656C247.362 56.248 245.357 54.2213 243.949 51.576C242.541 48.9307 241.837 45.8373 241.837 42.296C241.837 38.84 242.498 35.7893 243.821 33.144C245.186 30.4987 247.085 28.4507 249.517 27C251.949 25.5493 254.765 24.824 257.965 24.824C261.08 24.824 263.789 25.528 266.093 26.936C268.44 28.344 270.232 30.3707 271.469 33.016C272.706 35.6613 273.325 38.7547 273.325 42.296V44.856ZM257.965 31.608C255.96 31.608 254.274 32.2693 252.909 33.592C251.586 34.9147 250.69 36.7493 250.221 39.096H264.621C264.28 36.664 263.554 34.808 262.445 33.528C261.336 32.248 259.842 31.608 257.965 31.608ZM299.988 24.824V33.144H298.9C295.572 33.144 292.863 34.0613 290.772 35.896V59H282.324V33.016L280.916 25.592H289.364L290.196 30.008C291.604 28.088 292.884 26.744 294.036 25.976C295.188 25.208 296.468 24.824 297.876 24.824H299.988ZM331.437 59L330.157 54.52C328.621 56.184 326.829 57.464 324.781 58.36C322.776 59.256 320.664 59.704 318.445 59.704C314.52 59.704 311.405 58.168 309.101 55.096C306.84 52.024 305.709 47.8427 305.709 42.552C305.709 36.9627 307.01 32.6107 309.613 29.496C312.258 26.3813 315.97 24.824 320.749 24.824C323.821 24.824 326.68 25.4853 329.325 26.808V10.744H337.773V51.576L339.181 59H331.437ZM314.605 42.424C314.605 45.752 315.117 48.312 316.141 50.104C317.165 51.896 318.68 52.792 320.685 52.792C323.501 52.792 326.381 51.384 329.325 48.568V32.76C326.85 32.12 324.589 31.8 322.541 31.8C319.81 31.8 317.805 32.6747 316.525 34.424C315.245 36.1307 314.605 38.7973 314.605 42.424ZM378.263 44.856H355.031C355.372 47.416 356.311 49.3787 357.847 50.744C359.425 52.1093 361.516 52.792 364.119 52.792C366.039 52.792 368.108 52.4507 370.327 51.768C372.588 51.0427 374.679 50.0613 376.599 48.824H376.854V55.672C375.148 56.9947 373.185 58.0187 370.967 58.744C368.791 59.4267 366.487 59.768 364.055 59.768C360.556 59.768 357.505 59.064 354.903 57.656C352.3 56.248 350.295 54.2213 348.887 51.576C347.479 48.9307 346.775 45.8373 346.775 42.296C346.775 38.84 347.436 35.7893 348.759 33.144C350.124 30.4987 352.023 28.4507 354.455 27C356.887 25.5493 359.703 24.824 362.903 24.824C366.017 24.824 368.727 25.528 371.031 26.936C373.377 28.344 375.169 30.3707 376.407 33.016C377.644 35.6613 378.263 38.7547 378.263 42.296V44.856ZM362.903 31.608C360.897 31.608 359.212 32.2693 357.847 33.592C356.524 34.9147 355.628 36.7493 355.159 39.096H369.559C369.217 36.664 368.492 34.808 367.383 33.528C366.273 32.248 364.78 31.608 362.903 31.608ZM399.358 44.984L395.518 49.208V59H387.07V10.744H395.518V39.032L407.166 25.592H416.766L404.606 39.096L417.534 59H407.87L399.358 44.984ZM444.675 59L443.843 54.968C440.813 58.168 437.165 59.768 432.899 59.768C429.528 59.768 426.776 58.8933 424.643 57.144C422.552 55.3947 421.507 53.0907 421.507 50.232C421.507 46.52 422.872 43.64 425.603 41.592C428.376 39.5013 432.365 38.456 437.571 38.456C439.448 38.456 441.325 38.5413 443.203 38.712V37.496C443.203 35.6187 442.669 34.232 441.603 33.336C440.536 32.3973 438.851 31.928 436.547 31.928C434.285 31.928 432.173 32.312 430.211 33.08C428.291 33.8053 426.2 35 423.939 36.664V29.112C425.901 27.6187 427.949 26.5307 430.083 25.848C432.216 25.1653 434.563 24.824 437.123 24.824C441.859 24.824 445.464 25.848 447.939 27.896C450.456 29.9013 451.715 32.8453 451.715 36.728V51.576L453.123 59H444.675ZM429.955 49.592C429.955 52.0667 431.363 53.304 434.179 53.304C435.8 53.304 437.336 52.984 438.787 52.344C440.237 51.6613 441.709 50.5947 443.203 49.144V44.6H437.059C434.584 44.6 432.771 44.9627 431.619 45.688C430.509 46.4133 429.955 47.7147 429.955 49.592ZM470.728 25.592H478.408V31.864H470.728V47.992C470.728 51.2347 471.965 52.856 474.44 52.856C475.592 52.856 476.936 52.4507 478.472 51.64V58.616C477.405 59 476.402 59.2773 475.464 59.448C474.568 59.6613 473.544 59.768 472.392 59.768C465.65 59.768 462.28 55.8427 462.28 47.992V31.864H457.416V25.592H462.28V16.632L470.728 13.688V25.592Z" fill="#383E56"/>
</svg>
