<svg width="675" height="86" viewBox="0 0 675 86" fill="none" xmlns="http://www.w3.org/2000/svg">
<path d="M0.922974 34H173.516V52H0.922974V34Z" fill="#D4B5B0"/>
<path d="M5.056 36.92C5.056 32.184 5.952 28.0667 7.744 24.568C9.57867 21.0693 12.2027 18.3813 15.616 16.504C19.072 14.6267 23.1467 13.688 27.84 13.688C30.528 13.688 32.9387 13.9653 35.072 14.52C37.2053 15.0747 39.296 15.8427 41.344 16.824V24.696H41.088C39.5947 23.8 37.7387 23.0533 35.52 22.456C33.344 21.816 30.9973 21.496 28.48 21.496C18.7947 21.496 13.952 26.5947 13.952 36.792C13.952 41.784 15.104 45.56 17.408 48.12C19.712 50.68 23.0827 51.96 27.52 51.96C31.104 51.96 33.7707 51.2133 35.52 49.72V43H27.072V35.96H43.968V54.2C40.5547 56.2907 37.6107 57.7413 35.136 58.552C32.6613 59.3627 30.0373 59.768 27.264 59.768C22.5707 59.768 18.56 58.8293 15.232 56.952C11.904 55.0747 9.36533 52.4293 7.616 49.016C5.90933 45.56 5.056 41.528 5.056 36.92ZM76.0495 59L75.2175 54.968C72.1882 58.168 68.5402 59.768 64.2735 59.768C60.9028 59.768 58.1508 58.8933 56.0175 57.144C53.9268 55.3947 52.8815 53.0907 52.8815 50.232C52.8815 46.52 54.2468 43.64 56.9775 41.592C59.7508 39.5013 63.7402 38.456 68.9455 38.456C70.8228 38.456 72.7002 38.5413 74.5775 38.712V37.496C74.5775 35.6187 74.0442 34.232 72.9775 33.336C71.9108 32.3973 70.2255 31.928 67.9215 31.928C65.6602 31.928 63.5482 32.312 61.5855 33.08C59.6655 33.8053 57.5748 35 55.3135 36.664V29.112C57.2762 27.6187 59.3242 26.5307 61.4575 25.848C63.5908 25.1653 65.9375 24.824 68.4975 24.824C73.2335 24.824 76.8388 25.848 79.3135 27.896C81.8308 29.9013 83.0895 32.8453 83.0895 36.728V51.576L84.4975 59H76.0495ZM61.3295 49.592C61.3295 52.0667 62.7375 53.304 65.5535 53.304C67.1748 53.304 68.7108 52.984 70.1615 52.344C71.6122 51.6613 73.0842 50.5947 74.5775 49.144V44.6H68.4335C65.9588 44.6 64.1455 44.9627 62.9935 45.688C61.8842 46.4133 61.3295 47.7147 61.3295 49.592ZM91.7985 10.744H100.247V59H91.7985V10.744ZM140.2 44.856H116.968C117.309 47.416 118.248 49.3787 119.784 50.744C121.363 52.1093 123.453 52.792 126.056 52.792C127.976 52.792 130.045 52.4507 132.264 51.768C134.525 51.0427 136.616 50.0613 138.536 48.824H138.792V55.672C137.085 56.9947 135.123 58.0187 132.904 58.744C130.728 59.4267 128.424 59.768 125.992 59.768C122.493 59.768 119.443 59.064 116.84 57.656C114.237 56.248 112.232 54.2213 110.824 51.576C109.416 48.9307 108.712 45.8373 108.712 42.296C108.712 38.84 109.373 35.7893 110.696 33.144C112.061 30.4987 113.96 28.4507 116.392 27C118.824 25.5493 121.64 24.824 124.84 24.824C127.955 24.824 130.664 25.528 132.968 26.936C135.315 28.344 137.107 30.3707 138.344 33.016C139.581 35.6613 140.2 38.7547 140.2 42.296V44.856ZM124.84 31.608C122.835 31.608 121.149 32.2693 119.784 33.592C118.461 34.9147 117.565 36.7493 117.096 39.096H131.496C131.155 36.664 130.429 34.808 129.32 33.528C128.211 32.248 126.717 31.608 124.84 31.608ZM166.863 24.824V33.144H165.775C162.447 33.144 159.738 34.0613 157.647 35.896V59H149.199V33.016L147.791 25.592H156.239L157.071 30.008C158.479 28.088 159.759 26.744 160.911 25.976C162.063 25.208 163.343 24.824 164.751 24.824H166.863ZM179.21 20.6C177.759 20.6 176.522 20.1093 175.498 19.128C174.474 18.1467 173.962 16.8667 173.962 15.288C173.962 13.7093 174.474 12.4293 175.498 11.448C176.522 10.4667 177.759 9.976 179.21 9.976C180.661 9.976 181.898 10.4667 182.922 11.448C183.946 12.4293 184.458 13.7093 184.458 15.288C184.458 16.8667 183.946 18.1467 182.922 19.128C181.898 20.1093 180.661 20.6 179.21 20.6ZM183.434 25.592V59H174.986V25.656L183.434 25.592Z" fill="#383E56"/>
</svg>
