<svg width="772" height="96" viewBox="0 0 772 96" fill="none" xmlns="http://www.w3.org/2000/svg">
<path d="M1.05615 38.0836H211.215V58.2455H1.05615V38.0836Z" fill="#D4B5B0"/>
<path d="M56.128 59H47.68V25.144L35.904 59H27.072L15.04 25.208V59H6.592V14.456H19.84L31.616 47.48L43.072 14.456H56.128V59ZM88.862 59L88.03 54.968C85.0007 58.168 81.3527 59.768 77.086 59.768C73.7153 59.768 70.9633 58.8933 68.83 57.144C66.7393 55.3947 65.694 53.0907 65.694 50.232C65.694 46.52 67.0593 43.64 69.79 41.592C72.5633 39.5013 76.5527 38.456 81.758 38.456C83.6353 38.456 85.5127 38.5413 87.39 38.712V37.496C87.39 35.6187 86.8567 34.232 85.79 33.336C84.7233 32.3973 83.038 31.928 80.734 31.928C78.4727 31.928 76.3607 32.312 74.398 33.08C72.478 33.8053 70.3873 35 68.126 36.664V29.112C70.0887 27.6187 72.1367 26.5307 74.27 25.848C76.4033 25.1653 78.75 24.824 81.31 24.824C86.046 24.824 89.6513 25.848 92.126 27.896C94.6433 29.9013 95.902 32.8453 95.902 36.728V51.576L97.31 59H88.862ZM74.142 49.592C74.142 52.0667 75.55 53.304 78.366 53.304C79.9873 53.304 81.5233 52.984 82.974 52.344C84.4247 51.6613 85.8967 50.5947 87.39 49.144V44.6H81.246C78.7713 44.6 76.958 44.9627 75.806 45.688C74.6967 46.4133 74.142 47.7147 74.142 49.592ZM115.299 59.768C113.08 59.768 110.904 59.4693 108.771 58.872C106.638 58.232 104.632 57.336 102.755 56.184V48.184C104.803 49.72 106.744 50.8507 108.579 51.576C110.414 52.3013 112.398 52.664 114.531 52.664C116.707 52.664 118.307 52.3867 119.331 51.832C120.398 51.2773 120.931 50.424 120.931 49.272C120.931 48.1627 120.419 47.352 119.395 46.84C118.414 46.2853 116.835 45.752 114.659 45.24C112.27 44.6427 110.328 44.0453 108.835 43.448C107.342 42.808 106.04 41.784 104.931 40.376C103.864 38.968 103.331 37.0693 103.331 34.68C103.331 31.6933 104.547 29.304 106.979 27.512C109.454 25.72 112.76 24.824 116.899 24.824C118.904 24.824 120.76 25.0587 122.467 25.528C124.174 25.9547 125.923 26.68 127.715 27.704V35.512C125.88 34.232 124.174 33.3147 122.595 32.76C121.016 32.2053 119.331 31.928 117.539 31.928C115.576 31.928 114.062 32.184 112.995 32.696C111.928 33.1653 111.395 33.8693 111.395 34.808C111.395 35.7467 111.843 36.4507 112.739 36.92C113.678 37.3467 115.15 37.7947 117.155 38.264C119.544 38.776 121.528 39.3733 123.107 40.056C124.728 40.696 126.115 41.7627 127.267 43.256C128.419 44.7067 128.995 46.7333 128.995 49.336C128.995 51.3413 128.419 53.1547 127.267 54.776C126.115 56.3547 124.494 57.592 122.403 58.488C120.312 59.3413 117.944 59.768 115.299 59.768ZM160.547 59L159.331 54.648C157.155 56.568 155.235 57.912 153.571 58.68C151.95 59.4053 150.094 59.768 148.003 59.768C145.998 59.768 144.163 59.2987 142.499 58.36C140.878 57.4213 139.598 56.1413 138.659 54.52C137.763 52.856 137.315 51 137.315 48.952V25.592H145.763V44.152C145.763 46.84 146.19 48.8667 147.043 50.232C147.896 51.5973 149.134 52.28 150.755 52.28C152.12 52.28 153.4 51.9813 154.595 51.384C155.79 50.7867 157.07 49.8267 158.435 48.504V25.592H166.883V51.576L168.291 59H160.547ZM190.733 44.984L186.893 49.208V59H178.445V10.744H186.893V39.032L198.541 25.592H208.141L195.981 39.096L208.909 59H199.245L190.733 44.984Z" fill="#383E56"/>
</svg>
