<svg width="731" height="86" viewBox="0 0 731 86" fill="none" xmlns="http://www.w3.org/2000/svg">
<path d="M1 34H731V52H1V34Z" fill="#D4B5B0"/>
<path d="M33.216 35.832C35.52 36.8133 37.2693 38.2 38.464 39.992C39.6587 41.784 40.256 43.96 40.256 46.52C40.256 50.5733 38.784 53.6667 35.84 55.8C32.896 57.9333 28.6293 59 23.04 59H6.592V14.456H23.808C28.6293 14.456 32.3413 15.48 34.944 17.528C37.5467 19.5333 38.848 22.4133 38.848 26.168C38.848 30.648 36.9707 33.8693 33.216 35.832ZM15.04 21.88V32.504H23.04C25.344 32.504 27.072 32.0347 28.224 31.096C29.376 30.1573 29.952 28.792 29.952 27C29.952 25.0373 29.44 23.6933 28.416 22.968C27.4347 22.2427 25.664 21.88 23.104 21.88H15.04ZM23.04 51.512C26.0693 51.512 28.2027 51.0853 29.44 50.232C30.72 49.336 31.36 47.8213 31.36 45.688C31.36 43.6827 30.6773 42.2107 29.312 41.272C27.9893 40.3333 25.92 39.864 23.104 39.864H15.04V51.512H23.04ZM70.9245 59L70.0925 54.968C67.0632 58.168 63.4152 59.768 59.1485 59.768C55.7778 59.768 53.0258 58.8933 50.8925 57.144C48.8018 55.3947 47.7565 53.0907 47.7565 50.232C47.7565 46.52 49.1218 43.64 51.8525 41.592C54.6258 39.5013 58.6152 38.456 63.8205 38.456C65.6978 38.456 67.5752 38.5413 69.4525 38.712V37.496C69.4525 35.6187 68.9192 34.232 67.8525 33.336C66.7858 32.3973 65.1005 31.928 62.7965 31.928C60.5352 31.928 58.4232 32.312 56.4605 33.08C54.5405 33.8053 52.4498 35 50.1885 36.664V29.112C52.1512 27.6187 54.1992 26.5307 56.3325 25.848C58.4658 25.1653 60.8125 24.824 63.3725 24.824C68.1085 24.824 71.7138 25.848 74.1885 27.896C76.7058 29.9013 77.9645 32.8453 77.9645 36.728V51.576L79.3725 59H70.9245ZM56.2045 49.592C56.2045 52.0667 57.6125 53.304 60.4285 53.304C62.0498 53.304 63.5858 52.984 65.0365 52.344C66.4872 51.6613 67.9592 50.5947 69.4525 49.144V44.6H63.3085C60.8338 44.6 59.0205 44.9627 57.8685 45.688C56.7592 46.4133 56.2045 47.7147 56.2045 49.592ZM118.546 25.592L117.138 32.952V59C117.138 64.0773 115.644 67.9387 112.658 70.584C109.671 73.272 105.596 74.616 100.434 74.616C97.7028 74.616 95.2495 74.2533 93.0735 73.528C90.8975 72.8027 88.8068 71.8213 86.8015 70.584V62.648C90.8122 65.72 95.1215 67.256 99.7295 67.256C105.703 67.256 108.69 64.504 108.69 59V56.376C106.044 57.8267 103.143 58.552 99.9855 58.552C95.5055 58.552 91.9642 57.08 89.3615 54.136C86.8015 51.1493 85.5215 47.0533 85.5215 41.848C85.5215 36.5573 86.8655 32.3973 89.5535 29.368C92.2842 26.3387 95.9748 24.824 100.626 24.824C102.119 24.824 103.548 24.9947 104.914 25.336C106.279 25.6347 107.9 26.168 109.778 26.936L110.098 25.592H118.546ZM100.306 51.256C102.994 51.256 105.788 50.4027 108.69 48.696V32.696C107.58 32.3547 106.471 32.1413 105.362 32.056C104.295 31.9707 102.994 31.928 101.458 31.928C98.9828 31.928 97.1908 32.7173 96.0815 34.296C94.9722 35.8747 94.4175 38.392 94.4175 41.848C94.4175 45.1333 94.8868 47.5227 95.8255 49.016C96.7642 50.5093 98.2575 51.256 100.306 51.256ZM147.737 59L146.905 54.968C143.876 58.168 140.228 59.768 135.961 59.768C132.59 59.768 129.838 58.8933 127.705 57.144C125.614 55.3947 124.569 53.0907 124.569 50.232C124.569 46.52 125.934 43.64 128.665 41.592C131.438 39.5013 135.428 38.456 140.633 38.456C142.51 38.456 144.388 38.5413 146.265 38.712V37.496C146.265 35.6187 145.732 34.232 144.665 33.336C143.598 32.3973 141.913 31.928 139.609 31.928C137.348 31.928 135.236 32.312 133.273 33.08C131.353 33.8053 129.262 35 127.001 36.664V29.112C128.964 27.6187 131.012 26.5307 133.145 25.848C135.278 25.1653 137.625 24.824 140.185 24.824C144.921 24.824 148.526 25.848 151.001 27.896C153.518 29.9013 154.777 32.8453 154.777 36.728V51.576L156.185 59H147.737ZM133.017 49.592C133.017 52.0667 134.425 53.304 137.241 53.304C138.862 53.304 140.398 52.984 141.849 52.344C143.3 51.6613 144.772 50.5947 146.265 49.144V44.6H140.121C137.646 44.6 135.833 44.9627 134.681 45.688C133.572 46.4133 133.017 47.7147 133.017 49.592ZM167.71 20.6C166.259 20.6 165.022 20.1093 163.998 19.128C162.974 18.1467 162.462 16.8667 162.462 15.288C162.462 13.7093 162.974 12.4293 163.998 11.448C165.022 10.4667 166.259 9.976 167.71 9.976C169.161 9.976 170.398 10.4667 171.422 11.448C172.446 12.4293 172.958 13.7093 172.958 15.288C172.958 16.8667 172.446 18.1467 171.422 19.128C170.398 20.1093 169.161 20.6 167.71 20.6ZM171.934 25.592V59H163.486V25.656L171.934 25.592ZM220.528 24.824C223.728 24.824 226.288 25.8267 228.208 27.832C230.17 29.7947 231.152 32.3973 231.152 35.64V59H222.704V40.44C222.704 37.5387 222.32 35.4693 221.552 34.232C220.784 32.952 219.504 32.312 217.712 32.312C215.536 32.312 213.296 33.528 210.992 35.96V59H202.544V40.44C202.544 37.5387 202.16 35.4693 201.392 34.232C200.624 32.952 199.344 32.312 197.552 32.312C195.376 32.312 193.136 33.528 190.832 35.96V59H182.384V33.016L180.976 25.592H188.72L189.936 29.88C191.642 28.088 193.328 26.808 194.992 26.04C196.656 25.2293 198.448 24.824 200.368 24.824C202.501 24.824 204.378 25.3147 206 26.296C207.664 27.2347 208.922 28.536 209.776 30.2C211.568 28.28 213.296 26.9147 214.96 26.104C216.666 25.2507 218.522 24.824 220.528 24.824ZM262.987 59L262.155 54.968C259.126 58.168 255.478 59.768 251.211 59.768C247.84 59.768 245.088 58.8933 242.955 57.144C240.864 55.3947 239.819 53.0907 239.819 50.232C239.819 46.52 241.184 43.64 243.915 41.592C246.688 39.5013 250.678 38.456 255.883 38.456C257.76 38.456 259.638 38.5413 261.515 38.712V37.496C261.515 35.6187 260.982 34.232 259.915 33.336C258.848 32.3973 257.163 31.928 254.859 31.928C252.598 31.928 250.486 32.312 248.523 33.08C246.603 33.8053 244.512 35 242.251 36.664V29.112C244.214 27.6187 246.262 26.5307 248.395 25.848C250.528 25.1653 252.875 24.824 255.435 24.824C260.171 24.824 263.776 25.848 266.251 27.896C268.768 29.9013 270.027 32.8453 270.027 36.728V51.576L271.435 59H262.987ZM248.267 49.592C248.267 52.0667 249.675 53.304 252.491 53.304C254.112 53.304 255.648 52.984 257.099 52.344C258.55 51.6613 260.022 50.5947 261.515 49.144V44.6H255.371C252.896 44.6 251.083 44.9627 249.931 45.688C248.822 46.4133 248.267 47.7147 248.267 49.592ZM298 24.824C301.371 24.824 304.08 25.8267 306.128 27.832C308.219 29.7947 309.264 32.3973 309.264 35.64V59H300.816V40.44C300.816 37.5387 300.368 35.4693 299.472 34.232C298.619 32.952 297.189 32.312 295.184 32.312C292.965 32.312 290.619 33.5493 288.144 36.024V59H279.696V33.016L278.288 25.592H286.032L287.248 29.88C289.083 28.088 290.853 26.808 292.56 26.04C294.267 25.2293 296.08 24.824 298 24.824ZM341.05 59L340.218 54.968C337.188 58.168 333.54 59.768 329.274 59.768C325.903 59.768 323.151 58.8933 321.018 57.144C318.927 55.3947 317.882 53.0907 317.882 50.232C317.882 46.52 319.247 43.64 321.978 41.592C324.751 39.5013 328.74 38.456 333.946 38.456C335.823 38.456 337.7 38.5413 339.578 38.712V37.496C339.578 35.6187 339.044 34.232 337.978 33.336C336.911 32.3973 335.226 31.928 332.922 31.928C330.66 31.928 328.548 32.312 326.586 33.08C324.666 33.8053 322.575 35 320.314 36.664V29.112C322.276 27.6187 324.324 26.5307 326.458 25.848C328.591 25.1653 330.938 24.824 333.498 24.824C338.234 24.824 341.839 25.848 344.314 27.896C346.831 29.9013 348.09 32.8453 348.09 36.728V51.576L349.498 59H341.05ZM326.33 49.592C326.33 52.0667 327.738 53.304 330.554 53.304C332.175 53.304 333.711 52.984 335.162 52.344C336.612 51.6613 338.084 50.5947 339.578 49.144V44.6H333.434C330.959 44.6 329.146 44.9627 327.994 45.688C326.884 46.4133 326.33 47.7147 326.33 49.592ZM376.592 14.456H391.312C397.456 14.456 402.043 15.7147 405.072 18.232C408.101 20.7067 409.616 24.312 409.616 29.048C409.616 33.8267 408.123 37.5387 405.136 40.184C402.149 42.8293 397.797 44.152 392.08 44.152H385.04V59H376.592V14.456ZM391.376 36.792C394.576 36.792 396.923 36.216 398.416 35.064C399.952 33.912 400.72 31.9707 400.72 29.24C400.72 26.5947 399.973 24.7173 398.48 23.608C396.987 22.4987 394.597 21.944 391.312 21.944H385.04V36.792H391.376ZM435.738 24.824V33.144H434.65C431.322 33.144 428.613 34.0613 426.522 35.896V59H418.074V33.016L416.666 25.592H425.114L425.946 30.008C427.354 28.088 428.634 26.744 429.786 25.976C430.938 25.208 432.218 24.824 433.626 24.824H435.738ZM458.355 59.768C454.984 59.768 452.019 59.064 449.459 57.656C446.899 56.2053 444.915 54.1573 443.507 51.512C442.142 48.8667 441.459 45.7947 441.459 42.296C441.459 38.7973 442.142 35.7253 443.507 33.08C444.915 30.4347 446.899 28.408 449.459 27C452.019 25.5493 454.984 24.824 458.355 24.824C461.726 24.824 464.691 25.5493 467.251 27C469.811 28.408 471.774 30.4347 473.139 33.08C474.547 35.7253 475.251 38.7973 475.251 42.296C475.251 45.7947 474.547 48.8667 473.139 51.512C471.774 54.1573 469.811 56.2053 467.251 57.656C464.691 59.064 461.726 59.768 458.355 59.768ZM458.355 52.792C460.872 52.792 462.835 51.896 464.243 50.104C465.651 48.2693 466.355 45.6667 466.355 42.296C466.355 38.8827 465.651 36.28 464.243 34.488C462.835 32.696 460.872 31.8 458.355 31.8C455.838 31.8 453.875 32.696 452.467 34.488C451.059 36.28 450.355 38.8827 450.355 42.296C450.355 45.6667 451.059 48.2693 452.467 50.104C453.875 51.896 455.838 52.792 458.355 52.792ZM494.237 59.768C492.018 59.768 489.842 59.4693 487.709 58.872C485.575 58.232 483.57 57.336 481.693 56.184V48.184C483.741 49.72 485.682 50.8507 487.517 51.576C489.351 52.3013 491.335 52.664 493.469 52.664C495.645 52.664 497.245 52.3867 498.269 51.832C499.335 51.2773 499.869 50.424 499.869 49.272C499.869 48.1627 499.357 47.352 498.333 46.84C497.351 46.2853 495.773 45.752 493.597 45.24C491.207 44.6427 489.266 44.0453 487.773 43.448C486.279 42.808 484.978 41.784 483.869 40.376C482.802 38.968 482.269 37.0693 482.269 34.68C482.269 31.6933 483.485 29.304 485.917 27.512C488.391 25.72 491.698 24.824 495.837 24.824C497.842 24.824 499.698 25.0587 501.405 25.528C503.111 25.9547 504.861 26.68 506.653 27.704V35.512C504.818 34.232 503.111 33.3147 501.533 32.76C499.954 32.2053 498.269 31.928 496.477 31.928C494.514 31.928 492.999 32.184 491.933 32.696C490.866 33.1653 490.333 33.8693 490.333 34.808C490.333 35.7467 490.781 36.4507 491.677 36.92C492.615 37.3467 494.087 37.7947 496.093 38.264C498.482 38.776 500.466 39.3733 502.045 40.056C503.666 40.696 505.053 41.7627 506.205 43.256C507.357 44.7067 507.933 46.7333 507.933 49.336C507.933 51.3413 507.357 53.1547 506.205 54.776C505.053 56.3547 503.431 57.592 501.341 58.488C499.25 59.3413 496.882 59.768 494.237 59.768ZM546.013 44.856H522.781C523.122 47.416 524.061 49.3787 525.597 50.744C527.175 52.1093 529.266 52.792 531.869 52.792C533.789 52.792 535.858 52.4507 538.077 51.768C540.338 51.0427 542.429 50.0613 544.349 48.824H544.604V55.672C542.898 56.9947 540.935 58.0187 538.717 58.744C536.541 59.4267 534.237 59.768 531.805 59.768C528.306 59.768 525.255 59.064 522.653 57.656C520.05 56.248 518.045 54.2213 516.637 51.576C515.229 48.9307 514.525 45.8373 514.525 42.296C514.525 38.84 515.186 35.7893 516.509 33.144C517.874 30.4987 519.773 28.4507 522.205 27C524.637 25.5493 527.453 24.824 530.653 24.824C533.767 24.824 536.477 25.528 538.781 26.936C541.127 28.344 542.919 30.3707 544.157 33.016C545.394 35.6613 546.013 38.7547 546.013 42.296V44.856ZM530.653 31.608C528.647 31.608 526.962 32.2693 525.597 33.592C524.274 34.9147 523.378 36.7493 522.909 39.096H537.309C536.967 36.664 536.242 34.808 535.133 33.528C534.023 32.248 532.53 31.608 530.653 31.608ZM564.612 59.768C562.393 59.768 560.217 59.4693 558.084 58.872C555.95 58.232 553.945 57.336 552.068 56.184V48.184C554.116 49.72 556.057 50.8507 557.892 51.576C559.726 52.3013 561.71 52.664 563.844 52.664C566.02 52.664 567.62 52.3867 568.644 51.832C569.71 51.2773 570.244 50.424 570.244 49.272C570.244 48.1627 569.732 47.352 568.708 46.84C567.726 46.2853 566.148 45.752 563.972 45.24C561.582 44.6427 559.641 44.0453 558.148 43.448C556.654 42.808 555.353 41.784 554.244 40.376C553.177 38.968 552.644 37.0693 552.644 34.68C552.644 31.6933 553.86 29.304 556.292 27.512C558.766 25.72 562.073 24.824 566.212 24.824C568.217 24.824 570.073 25.0587 571.78 25.528C573.486 25.9547 575.236 26.68 577.028 27.704V35.512C575.193 34.232 573.486 33.3147 571.908 32.76C570.329 32.2053 568.644 31.928 566.852 31.928C564.889 31.928 563.374 32.184 562.308 32.696C561.241 33.1653 560.708 33.8693 560.708 34.808C560.708 35.7467 561.156 36.4507 562.052 36.92C562.99 37.3467 564.462 37.7947 566.468 38.264C568.857 38.776 570.841 39.3733 572.42 40.056C574.041 40.696 575.428 41.7627 576.58 43.256C577.732 44.7067 578.308 46.7333 578.308 49.336C578.308 51.3413 577.732 53.1547 576.58 54.776C575.428 56.3547 573.806 57.592 571.716 58.488C569.625 59.3413 567.257 59.768 564.612 59.768ZM605.188 24.824C608.558 24.824 611.268 25.8267 613.316 27.832C615.406 29.7947 616.451 32.3973 616.451 35.64V59H608.004V40.44C608.004 37.5387 607.556 35.4693 606.66 34.232C605.806 32.952 604.377 32.312 602.372 32.312C600.153 32.312 597.806 33.5493 595.332 36.024V59H586.884V33.016L585.476 25.592H593.22L594.436 29.88C596.27 28.088 598.041 26.808 599.748 26.04C601.454 25.2293 603.268 24.824 605.188 24.824ZM657.645 25.592L638.509 73.848H630.509L635.949 60.088L622.445 25.592H631.021L640.301 50.04L649.197 25.592H657.645ZM684.05 59L683.218 54.968C680.188 58.168 676.54 59.768 672.274 59.768C668.903 59.768 666.151 58.8933 664.018 57.144C661.927 55.3947 660.882 53.0907 660.882 50.232C660.882 46.52 662.247 43.64 664.978 41.592C667.751 39.5013 671.74 38.456 676.946 38.456C678.823 38.456 680.7 38.5413 682.578 38.712V37.496C682.578 35.6187 682.044 34.232 680.978 33.336C679.911 32.3973 678.226 31.928 675.922 31.928C673.66 31.928 671.548 32.312 669.586 33.08C667.666 33.8053 665.575 35 663.314 36.664V29.112C665.276 27.6187 667.324 26.5307 669.458 25.848C671.591 25.1653 673.938 24.824 676.498 24.824C681.234 24.824 684.839 25.848 687.314 27.896C689.831 29.9013 691.09 32.8453 691.09 36.728V51.576L692.498 59H684.05ZM669.33 49.592C669.33 52.0667 670.738 53.304 673.554 53.304C675.175 53.304 676.711 52.984 678.162 52.344C679.612 51.6613 681.084 50.5947 682.578 49.144V44.6H676.434C673.959 44.6 672.146 44.9627 670.994 45.688C669.884 46.4133 669.33 47.7147 669.33 49.592ZM704.919 42.296C704.919 39.864 705.324 37.8587 706.135 36.28C706.945 34.6587 707.927 33.4 709.079 32.504C710.231 31.5653 711.681 30.6053 713.431 29.624C715.308 28.5573 716.673 27.6187 717.527 26.808C718.423 25.9547 718.871 24.8027 718.871 23.352C718.871 21.4747 718.039 20.024 716.375 19C714.753 17.9333 712.599 17.4 709.911 17.4C705.857 17.4 701.932 18.616 698.135 21.048H697.879V13.496C701.591 11.1493 705.772 9.976 710.423 9.976C713.623 9.976 716.503 10.488 719.063 11.512C721.623 12.536 723.649 14.0507 725.143 16.056C726.679 18.0613 727.447 20.4933 727.447 23.352C727.447 25.4 727.063 27.128 726.295 28.536C725.527 29.9013 724.588 31.0107 723.479 31.864C722.369 32.6747 720.94 33.5493 719.191 34.488C717.228 35.5547 715.756 36.536 714.775 37.432C713.836 38.328 713.367 39.5227 713.367 41.016V42.744H704.919V42.296ZM709.079 59.768C707.5 59.768 706.156 59.256 705.047 58.232C703.98 57.1653 703.447 55.7787 703.447 54.072C703.447 52.3653 703.98 51 705.047 49.976C706.156 48.9093 707.5 48.376 709.079 48.376C710.657 48.376 711.98 48.9093 713.047 49.976C714.156 51 714.711 52.3653 714.711 54.072C714.711 55.7787 714.156 57.1653 713.047 58.232C711.98 59.256 710.657 59.768 709.079 59.768Z" fill="#383E56"/>
</svg>
