<svg width="238" height="79" viewBox="0 0 238 79" fill="none" xmlns="http://www.w3.org/2000/svg">
<path d="M44.2504 45.3494L30.3954 45.1491L32.3905 31.2915L46.2455 31.4918L44.2504 45.3494ZM73.8736 31.8898C75.3996 31.8898 76.6383 30.6485 76.6383 29.1225V20.6335C76.6383 19.1049 75.3996 17.8636 73.8736 17.8636L62.2589 17.6975L64.4095 2.76993C64.4095 1.24133 63.1681 0 61.6369 0H53.1505C51.6219 0 50.3832 1.24133 50.3832 2.76993L48.2616 17.4946L34.4067 17.2969L36.4993 2.76993C36.4993 1.24133 35.258 0 33.7294 0H25.243C23.7118 0 22.4704 1.24133 22.4704 2.76993L20.4095 17.094L2.76993 16.841C1.23869 16.841 0 18.0797 0 19.6083V28.0973C0 29.6259 1.23869 30.8672 2.76993 30.8672L18.3933 31.0912L16.3982 44.9461L2.76993 44.7511C1.23869 44.7511 0 45.9925 0 47.5211V56.0074C0 57.536 1.23869 58.78 2.76993 58.78L14.382 58.9434L12.2341 73.8736C12.2341 75.4022 13.4754 76.6409 15.0014 76.6409H23.4904C25.019 76.6409 26.2603 75.4022 26.2603 73.8736L28.3793 59.1463L42.2342 59.344L40.1442 73.8736C40.1442 75.4022 41.3829 76.6409 42.9115 76.6409H51.4005C52.9265 76.6409 54.1705 75.4022 54.1705 73.8736L56.2314 59.5469L73.8736 59.7999C75.3996 59.7999 76.6383 58.5612 76.6383 57.0326V48.541C76.6383 47.015 75.3996 45.7763 73.8736 45.7763L58.2476 45.5497L60.2427 31.6948L73.8736 31.8898Z" fill="#383E56" fill-opacity="0.49"/>
<path d="M28 38H235V52H28V38Z" fill="#D4B5B0"/>
<path d="M41.9556 55.525C40.3223 55.525 38.587 55.3062 36.7496 54.8688C34.9122 54.4313 33.1768 53.8334 31.5436 53.0751V47.4754C35.3351 49.5169 38.7182 50.5377 41.6931 50.5377C43.1805 50.5377 44.3763 50.2169 45.2804 49.5753C46.2137 48.9336 46.6803 48.0295 46.6803 46.8629C46.6803 46.0463 46.4178 45.3609 45.8929 44.8068C45.3971 44.2234 44.77 43.7568 44.0117 43.4068C43.2534 43.0277 42.1743 42.5756 40.7744 42.0506C38.8786 41.3507 37.3329 40.6799 36.1371 40.0382C34.9413 39.3966 33.9205 38.4925 33.0747 37.3259C32.229 36.1301 31.8061 34.5989 31.8061 32.7324C31.8061 29.9908 32.7539 27.8618 34.6497 26.3452C36.5454 24.7994 39.1411 24.0265 42.4368 24.0265C43.9825 24.0265 45.4991 24.2015 46.9866 24.5515C48.474 24.8723 49.8448 25.3535 51.0989 25.9952V31.4637C48.1532 29.8304 45.3096 29.0138 42.568 29.0138C41.0514 29.0138 39.8557 29.2909 38.9807 29.845C38.1349 30.37 37.712 31.1283 37.712 32.1199C37.712 33.1115 38.1495 33.899 39.0245 34.4823C39.9286 35.0364 41.3139 35.6489 43.1805 36.3197C45.1346 37.0488 46.7387 37.7488 47.9928 38.4196C49.2469 39.0904 50.326 40.0674 51.2301 41.3507C52.1634 42.6048 52.6592 44.238 52.7175 46.2504C52.7175 49.1378 51.7405 51.4127 49.7864 53.0751C47.8324 54.7083 45.2221 55.525 41.9556 55.525ZM93.0377 32.1636L86.0817 55H79.1696L74.7511 39.6883L70.42 55H63.5079L56.5082 32.1636H62.3704L67.1827 49.094L71.9074 32.1636H77.7697L82.5819 49.1378L87.3504 32.1636H93.0377ZM111.471 55L110.902 52.2439C108.831 54.4313 106.338 55.525 103.421 55.525C101.117 55.525 99.2361 54.9271 97.7778 53.7313C96.3487 52.5355 95.6342 50.9606 95.6342 49.0065C95.6342 46.4692 96.5674 44.5005 98.434 43.1006C100.33 41.6715 103.057 40.9569 106.615 40.9569C107.898 40.9569 109.181 41.0153 110.465 41.1319V40.3007C110.465 39.0175 110.1 38.0696 109.371 37.4571C108.642 36.8155 107.49 36.4947 105.915 36.4947C104.369 36.4947 102.925 36.7572 101.584 37.2821C100.271 37.7779 98.8423 38.5946 97.2966 39.732V34.5698C98.6382 33.549 100.038 32.8053 101.496 32.3386C102.955 31.872 104.559 31.6387 106.309 31.6387C109.546 31.6387 112.01 32.3386 113.702 33.7385C115.423 35.1093 116.283 37.1217 116.283 39.7758V49.9253L117.246 55H111.471ZM101.409 48.5691C101.409 50.2607 102.371 51.1064 104.296 51.1064C105.405 51.1064 106.454 50.8877 107.446 50.4502C108.438 49.9836 109.444 49.2545 110.465 48.2628V45.1567H106.265C104.573 45.1567 103.334 45.4046 102.546 45.9004C101.788 46.3963 101.409 47.2858 101.409 48.5691ZM131.248 45.4192L128.623 48.3066V55H122.849V22.0141H128.623V41.3507L136.586 32.1636H143.148L134.836 41.3944L143.673 55H137.067L131.248 45.4192ZM162.225 55L161.656 52.2439C159.586 54.4313 157.092 55.525 154.176 55.525C151.872 55.525 149.99 54.9271 148.532 53.7313C147.103 52.5355 146.388 50.9606 146.388 49.0065C146.388 46.4692 147.322 44.5005 149.188 43.1006C151.084 41.6715 153.811 40.9569 157.369 40.9569C158.652 40.9569 159.936 41.0153 161.219 41.1319V40.3007C161.219 39.0175 160.854 38.0696 160.125 37.4571C159.396 36.8155 158.244 36.4947 156.669 36.4947C155.123 36.4947 153.68 36.7572 152.338 37.2821C151.026 37.7779 149.597 38.5946 148.051 39.732V34.5698C149.393 33.549 150.792 32.8053 152.251 32.3386C153.709 31.872 155.313 31.6387 157.063 31.6387C160.3 31.6387 162.765 32.3386 164.456 33.7385C166.177 35.1093 167.037 37.1217 167.037 39.7758V49.9253L168 55H162.225ZM152.163 48.5691C152.163 50.2607 153.126 51.1064 155.051 51.1064C156.159 51.1064 157.209 50.8877 158.2 50.4502C159.192 49.9836 160.198 49.2545 161.219 48.2628V45.1567H157.019C155.328 45.1567 154.088 45.4046 153.301 45.9004C152.542 46.3963 152.163 47.2858 152.163 48.5691ZM185.809 31.6387V37.3259H185.065C182.79 37.3259 180.938 37.9529 179.509 39.207V55H173.734V37.2384L172.772 32.1636H178.547L179.115 35.1822C180.078 33.8698 180.953 32.9511 181.74 32.4261C182.528 31.9011 183.403 31.6387 184.365 31.6387H185.809ZM212.404 32.1636L199.323 65.1495H193.855L197.573 55.7437L188.343 32.1636H194.205L200.548 48.8753L206.629 32.1636H212.404ZM230.453 55L229.884 52.2439C227.814 54.4313 225.32 55.525 222.403 55.525C220.099 55.525 218.218 54.9271 216.76 53.7313C215.331 52.5355 214.616 50.9606 214.616 49.0065C214.616 46.4692 215.55 44.5005 217.416 43.1006C219.312 41.6715 222.039 40.9569 225.597 40.9569C226.88 40.9569 228.164 41.0153 229.447 41.1319V40.3007C229.447 39.0175 229.082 38.0696 228.353 37.4571C227.624 36.8155 226.472 36.4947 224.897 36.4947C223.351 36.4947 221.908 36.7572 220.566 37.2821C219.254 37.7779 217.824 38.5946 216.279 39.732V34.5698C217.62 33.549 219.02 32.8053 220.479 32.3386C221.937 31.872 223.541 31.6387 225.291 31.6387C228.528 31.6387 230.993 32.3386 232.684 33.7385C234.405 35.1093 235.265 37.1217 235.265 39.7758V49.9253L236.228 55H230.453ZM220.391 48.5691C220.391 50.2607 221.353 51.1064 223.278 51.1064C224.387 51.1064 225.437 50.8877 226.428 50.4502C227.42 49.9836 228.426 49.2545 229.447 48.2628V45.1567H225.247C223.555 45.1567 222.316 45.4046 221.528 45.9004C220.77 46.3963 220.391 47.2858 220.391 48.5691Z" fill="#383E56"/>
<path d="M73.0381 66.7364V68.8244H76.6381V70.1324H73.0381V72.3044H76.9021V73.6964H71.4541V65.3444H76.9021V66.7364H73.0381ZM86.1139 67.2884C86.7139 67.2884 87.1939 67.4764 87.5539 67.8524C87.9219 68.2204 88.1059 68.7084 88.1059 69.3164V73.6964H86.5219V70.2164C86.5219 69.6724 86.4499 69.2844 86.3059 69.0524C86.1619 68.8124 85.9219 68.6924 85.5859 68.6924C85.1779 68.6924 84.7579 68.9204 84.3259 69.3764V73.6964H82.7419V70.2164C82.7419 69.6724 82.6699 69.2844 82.5259 69.0524C82.3819 68.8124 82.1419 68.6924 81.8059 68.6924C81.3979 68.6924 80.9779 68.9204 80.5459 69.3764V73.6964H78.9619V68.8244L78.6979 67.4324H80.1499L80.3779 68.2364C80.6979 67.9004 81.0139 67.6604 81.3259 67.5164C81.6379 67.3644 81.9739 67.2884 82.3339 67.2884C82.7339 67.2884 83.0859 67.3804 83.3899 67.5644C83.7019 67.7404 83.9379 67.9844 84.0979 68.2964C84.4339 67.9364 84.7579 67.6804 85.0699 67.5284C85.3899 67.3684 85.7379 67.2884 86.1139 67.2884ZM93.7751 67.3004C94.2471 67.3004 94.6631 67.4364 95.0231 67.7084C95.3911 67.9724 95.6751 68.3484 95.8751 68.8364C96.0831 69.3164 96.1871 69.8724 96.1871 70.5044C96.1871 71.1284 96.0671 71.6964 95.8271 72.2084C95.5871 72.7124 95.2551 73.1124 94.8311 73.4084C94.4151 73.6964 93.9431 73.8404 93.4151 73.8404C92.7751 73.8404 92.2071 73.7084 91.7111 73.4444V76.4804H90.1271V68.8244L89.8631 67.4324H91.3151L91.5671 68.3204C91.8551 67.9924 92.1911 67.7404 92.5751 67.5644C92.9591 67.3884 93.3591 67.3004 93.7751 67.3004ZM93.0911 72.5324C94.0431 72.5324 94.5191 71.8644 94.5191 70.5284C94.5191 69.9124 94.4231 69.4364 94.2311 69.1004C94.0471 68.7644 93.7751 68.5964 93.4151 68.5964C92.8391 68.5964 92.2711 68.8764 91.7111 69.4364V72.3404C92.2231 72.4684 92.6831 72.5324 93.0911 72.5324ZM100.695 73.8404C100.063 73.8404 99.5069 73.7084 99.0269 73.4444C98.5469 73.1724 98.1749 72.7884 97.9109 72.2924C97.6549 71.7964 97.5269 71.2204 97.5269 70.5644C97.5269 69.9084 97.6549 69.3324 97.9109 68.8364C98.1749 68.3404 98.5469 67.9604 99.0269 67.6964C99.5069 67.4244 100.063 67.2884 100.695 67.2884C101.327 67.2884 101.883 67.4244 102.363 67.6964C102.843 67.9604 103.211 68.3404 103.467 68.8364C103.731 69.3324 103.863 69.9084 103.863 70.5644C103.863 71.2204 103.731 71.7964 103.467 72.2924C103.211 72.7884 102.843 73.1724 102.363 73.4444C101.883 73.7084 101.327 73.8404 100.695 73.8404ZM100.695 72.5324C101.167 72.5324 101.535 72.3644 101.799 72.0284C102.063 71.6844 102.195 71.1964 102.195 70.5644C102.195 69.9244 102.063 69.4364 101.799 69.1004C101.535 68.7644 101.167 68.5964 100.695 68.5964C100.223 68.5964 99.8549 68.7644 99.5909 69.1004C99.3269 69.4364 99.1949 69.9244 99.1949 70.5644C99.1949 71.1964 99.3269 71.6844 99.5909 72.0284C99.8549 72.3644 100.223 72.5324 100.695 72.5324ZM114.695 67.4324L112.787 73.6964H110.891L109.679 69.4964L108.491 73.6964H106.595L104.675 67.4324H106.283L107.603 72.0764L108.899 67.4324H110.507L111.827 72.0884L113.135 67.4324H114.695ZM121.455 71.0444H117.099C117.163 71.5244 117.339 71.8924 117.627 72.1484C117.923 72.4044 118.315 72.5324 118.803 72.5324C119.163 72.5324 119.551 72.4684 119.967 72.3404C120.391 72.2044 120.783 72.0204 121.143 71.7884H121.191V73.0724C120.871 73.3204 120.503 73.5124 120.087 73.6484C119.679 73.7764 119.247 73.8404 118.791 73.8404C118.135 73.8404 117.563 73.7084 117.075 73.4444C116.587 73.1804 116.211 72.8004 115.947 72.3044C115.683 71.8084 115.551 71.2284 115.551 70.5644C115.551 69.9164 115.675 69.3444 115.923 68.8484C116.179 68.3524 116.535 67.9684 116.991 67.6964C117.447 67.4244 117.975 67.2884 118.575 67.2884C119.159 67.2884 119.667 67.4204 120.099 67.6844C120.539 67.9484 120.875 68.3284 121.107 68.8244C121.339 69.3204 121.455 69.9004 121.455 70.5644V71.0444ZM118.575 68.5604C118.199 68.5604 117.883 68.6844 117.627 68.9324C117.379 69.1804 117.211 69.5244 117.123 69.9644H119.823C119.759 69.5084 119.623 69.1604 119.415 68.9204C119.207 68.6804 118.927 68.5604 118.575 68.5604ZM126.454 67.2884V68.8484H126.25C125.626 68.8484 125.118 69.0204 124.726 69.3644V73.6964H123.142V68.8244L122.878 67.4324H124.462L124.618 68.2604C124.882 67.9004 125.122 67.6484 125.338 67.5044C125.554 67.3604 125.794 67.2884 126.058 67.2884H126.454ZM131.689 65.3444H133.273V72.3044H136.789V73.6964H131.689V65.3444ZM141.253 73.8404C140.621 73.8404 140.065 73.7084 139.585 73.4444C139.105 73.1724 138.733 72.7884 138.469 72.2924C138.213 71.7964 138.085 71.2204 138.085 70.5644C138.085 69.9084 138.213 69.3324 138.469 68.8364C138.733 68.3404 139.105 67.9604 139.585 67.6964C140.065 67.4244 140.621 67.2884 141.253 67.2884C141.885 67.2884 142.441 67.4244 142.921 67.6964C143.401 67.9604 143.769 68.3404 144.025 68.8364C144.289 69.3324 144.421 69.9084 144.421 70.5644C144.421 71.2204 144.289 71.7964 144.025 72.2924C143.769 72.7884 143.401 73.1724 142.921 73.4444C142.441 73.7084 141.885 73.8404 141.253 73.8404ZM141.253 72.5324C141.725 72.5324 142.093 72.3644 142.357 72.0284C142.621 71.6844 142.753 71.1964 142.753 70.5644C142.753 69.9244 142.621 69.4364 142.357 69.1004C142.093 68.7644 141.725 68.5964 141.253 68.5964C140.781 68.5964 140.413 68.7644 140.149 69.1004C139.885 69.4364 139.753 69.9244 139.753 70.5644C139.753 71.1964 139.885 71.6844 140.149 72.0284C140.413 72.3644 140.781 72.5324 141.253 72.5324ZM149.025 73.8404C148.369 73.8404 147.793 73.7084 147.297 73.4444C146.809 73.1724 146.433 72.7924 146.169 72.3044C145.905 71.8164 145.773 71.2444 145.773 70.5884C145.773 69.9324 145.909 69.3564 146.181 68.8604C146.453 68.3564 146.833 67.9684 147.321 67.6964C147.817 67.4244 148.385 67.2884 149.025 67.2884C149.745 67.2884 150.353 67.4364 150.849 67.7324V69.1244H150.801C150.537 68.9644 150.249 68.8444 149.937 68.7644C149.633 68.6844 149.349 68.6444 149.085 68.6444C148.533 68.6444 148.117 68.8084 147.837 69.1364C147.557 69.4644 147.417 69.9484 147.417 70.5884C147.417 71.8524 147.965 72.4844 149.061 72.4844C149.349 72.4844 149.641 72.4404 149.937 72.3524C150.241 72.2564 150.529 72.1244 150.801 71.9564H150.849V73.3724C150.337 73.6844 149.729 73.8404 149.025 73.8404ZM156.466 73.6964L156.31 72.9404C155.742 73.5404 155.058 73.8404 154.258 73.8404C153.626 73.8404 153.11 73.6764 152.71 73.3484C152.318 73.0204 152.122 72.5884 152.122 72.0524C152.122 71.3564 152.378 70.8164 152.89 70.4324C153.41 70.0404 154.158 69.8444 155.134 69.8444C155.486 69.8444 155.838 69.8604 156.19 69.8924V69.6644C156.19 69.3124 156.09 69.0524 155.89 68.8844C155.69 68.7084 155.374 68.6204 154.942 68.6204C154.518 68.6204 154.122 68.6924 153.754 68.8364C153.394 68.9724 153.002 69.1964 152.578 69.5084V68.0924C152.946 67.8124 153.33 67.6084 153.73 67.4804C154.13 67.3524 154.57 67.2884 155.05 67.2884C155.938 67.2884 156.614 67.4804 157.078 67.8644C157.55 68.2404 157.786 68.7924 157.786 69.5204V72.3044L158.05 73.6964H156.466ZM153.706 71.9324C153.706 72.3964 153.97 72.6284 154.498 72.6284C154.802 72.6284 155.09 72.5684 155.362 72.4484C155.634 72.3204 155.91 72.1204 156.19 71.8484V70.9964H155.038C154.574 70.9964 154.234 71.0644 154.018 71.2004C153.81 71.3364 153.706 71.5804 153.706 71.9324ZM159.419 64.6484H161.003V73.6964H159.419V64.6484ZM171.485 69.3524C171.917 69.5364 172.245 69.7964 172.469 70.1324C172.693 70.4684 172.805 70.8764 172.805 71.3564C172.805 72.1164 172.529 72.6964 171.977 73.0964C171.425 73.4964 170.625 73.6964 169.577 73.6964H166.493V65.3444H169.721C170.625 65.3444 171.321 65.5364 171.809 65.9204C172.297 66.2964 172.541 66.8364 172.541 67.5404C172.541 68.3804 172.189 68.9844 171.485 69.3524ZM168.077 66.7364V68.7284H169.577C170.009 68.7284 170.333 68.6404 170.549 68.4644C170.765 68.2884 170.873 68.0324 170.873 67.6964C170.873 67.3284 170.777 67.0764 170.585 66.9404C170.401 66.8044 170.069 66.7364 169.589 66.7364H168.077ZM169.577 72.2924C170.145 72.2924 170.545 72.2124 170.777 72.0524C171.017 71.8844 171.137 71.6004 171.137 71.2004C171.137 70.8244 171.009 70.5484 170.753 70.3724C170.505 70.1964 170.117 70.1084 169.589 70.1084H168.077V72.2924H169.577ZM179.036 73.6964L178.808 72.8804C178.4 73.2404 178.04 73.4924 177.728 73.6364C177.424 73.7724 177.076 73.8404 176.684 73.8404C176.308 73.8404 175.964 73.7524 175.652 73.5764C175.348 73.4004 175.108 73.1604 174.932 72.8564C174.764 72.5444 174.68 72.1964 174.68 71.8124V67.4324H176.264V70.9124C176.264 71.4164 176.344 71.7964 176.504 72.0524C176.664 72.3084 176.896 72.4364 177.2 72.4364C177.456 72.4364 177.696 72.3804 177.92 72.2684C178.144 72.1564 178.384 71.9764 178.64 71.7284V67.4324H180.224V72.3044L180.488 73.6964H179.036ZM184.227 73.8404C183.811 73.8404 183.403 73.7844 183.003 73.6724C182.603 73.5524 182.227 73.3844 181.875 73.1684V71.6684C182.259 71.9564 182.623 72.1684 182.967 72.3044C183.311 72.4404 183.683 72.5084 184.083 72.5084C184.491 72.5084 184.791 72.4564 184.983 72.3524C185.183 72.2484 185.283 72.0884 185.283 71.8724C185.283 71.6644 185.187 71.5124 184.995 71.4164C184.811 71.3124 184.515 71.2124 184.107 71.1164C183.659 71.0044 183.295 70.8924 183.015 70.7804C182.735 70.6604 182.491 70.4684 182.283 70.2044C182.083 69.9404 181.983 69.5844 181.983 69.1364C181.983 68.5764 182.211 68.1284 182.667 67.7924C183.131 67.4564 183.751 67.2884 184.527 67.2884C184.903 67.2884 185.251 67.3324 185.571 67.4204C185.891 67.5004 186.219 67.6364 186.555 67.8284V69.2924C186.211 69.0524 185.891 68.8804 185.595 68.7764C185.299 68.6724 184.983 68.6204 184.647 68.6204C184.279 68.6204 183.995 68.6684 183.795 68.7644C183.595 68.8524 183.495 68.9844 183.495 69.1604C183.495 69.3364 183.579 69.4684 183.747 69.5564C183.923 69.6364 184.199 69.7204 184.575 69.8084C185.023 69.9044 185.395 70.0164 185.691 70.1444C185.995 70.2644 186.255 70.4644 186.471 70.7444C186.687 71.0164 186.795 71.3964 186.795 71.8844C186.795 72.2604 186.687 72.6004 186.471 72.9044C186.255 73.2004 185.951 73.4324 185.559 73.6004C185.167 73.7604 184.723 73.8404 184.227 73.8404ZM189.015 66.4964C188.743 66.4964 188.511 66.4044 188.319 66.2204C188.127 66.0364 188.031 65.7964 188.031 65.5004C188.031 65.2044 188.127 64.9644 188.319 64.7804C188.511 64.5964 188.743 64.5044 189.015 64.5044C189.287 64.5044 189.519 64.5964 189.711 64.7804C189.903 64.9644 189.999 65.2044 189.999 65.5004C189.999 65.7964 189.903 66.0364 189.711 66.2204C189.519 66.4044 189.287 66.4964 189.015 66.4964ZM189.807 67.4324V73.6964H188.223V67.4444L189.807 67.4324ZM195.199 67.2884C195.831 67.2884 196.339 67.4764 196.723 67.8524C197.115 68.2204 197.311 68.7084 197.311 69.3164V73.6964H195.727V70.2164C195.727 69.6724 195.643 69.2844 195.475 69.0524C195.315 68.8124 195.047 68.6924 194.671 68.6924C194.255 68.6924 193.815 68.9244 193.351 69.3884V73.6964H191.767V68.8244L191.503 67.4324H192.955L193.183 68.2364C193.527 67.9004 193.859 67.6604 194.179 67.5164C194.499 67.3644 194.839 67.2884 195.199 67.2884ZM204.974 71.0444H200.618C200.682 71.5244 200.858 71.8924 201.146 72.1484C201.442 72.4044 201.834 72.5324 202.322 72.5324C202.682 72.5324 203.07 72.4684 203.486 72.3404C203.91 72.2044 204.302 72.0204 204.662 71.7884H204.71V73.0724C204.39 73.3204 204.022 73.5124 203.606 73.6484C203.198 73.7764 202.766 73.8404 202.31 73.8404C201.654 73.8404 201.082 73.7084 200.594 73.4444C200.106 73.1804 199.73 72.8004 199.466 72.3044C199.202 71.8084 199.07 71.2284 199.07 70.5644C199.07 69.9164 199.194 69.3444 199.442 68.8484C199.698 68.3524 200.054 67.9684 200.51 67.6964C200.966 67.4244 201.494 67.2884 202.094 67.2884C202.678 67.2884 203.186 67.4204 203.618 67.6844C204.058 67.9484 204.394 68.3284 204.626 68.8244C204.858 69.3204 204.974 69.9004 204.974 70.5644V71.0444ZM202.094 68.5604C201.718 68.5604 201.402 68.6844 201.146 68.9324C200.898 69.1804 200.73 69.5244 200.642 69.9644H203.342C203.278 69.5084 203.142 69.1604 202.934 68.9204C202.726 68.6804 202.446 68.5604 202.094 68.5604ZM208.462 73.8404C208.046 73.8404 207.638 73.7844 207.238 73.6724C206.838 73.5524 206.462 73.3844 206.11 73.1684V71.6684C206.494 71.9564 206.858 72.1684 207.202 72.3044C207.546 72.4404 207.918 72.5084 208.318 72.5084C208.726 72.5084 209.026 72.4564 209.218 72.3524C209.418 72.2484 209.518 72.0884 209.518 71.8724C209.518 71.6644 209.422 71.5124 209.23 71.4164C209.046 71.3124 208.75 71.2124 208.342 71.1164C207.894 71.0044 207.53 70.8924 207.25 70.7804C206.97 70.6604 206.726 70.4684 206.518 70.2044C206.318 69.9404 206.218 69.5844 206.218 69.1364C206.218 68.5764 206.446 68.1284 206.902 67.7924C207.366 67.4564 207.986 67.2884 208.762 67.2884C209.138 67.2884 209.486 67.3324 209.806 67.4204C210.126 67.5004 210.454 67.6364 210.79 67.8284V69.2924C210.446 69.0524 210.126 68.8804 209.83 68.7764C209.534 68.6724 209.218 68.6204 208.882 68.6204C208.514 68.6204 208.23 68.6684 208.03 68.7644C207.83 68.8524 207.73 68.9844 207.73 69.1604C207.73 69.3364 207.814 69.4684 207.982 69.5564C208.158 69.6364 208.434 69.7204 208.81 69.8084C209.258 69.9044 209.63 70.0164 209.926 70.1444C210.23 70.2644 210.49 70.4644 210.706 70.7444C210.922 71.0164 211.03 71.3964 211.03 71.8844C211.03 72.2604 210.922 72.6004 210.706 72.9044C210.49 73.2004 210.186 73.4324 209.794 73.6004C209.402 73.7604 208.958 73.8404 208.462 73.8404ZM214.462 73.8404C214.046 73.8404 213.638 73.7844 213.238 73.6724C212.838 73.5524 212.462 73.3844 212.11 73.1684V71.6684C212.494 71.9564 212.858 72.1684 213.202 72.3044C213.546 72.4404 213.918 72.5084 214.318 72.5084C214.726 72.5084 215.026 72.4564 215.218 72.3524C215.418 72.2484 215.518 72.0884 215.518 71.8724C215.518 71.6644 215.422 71.5124 215.23 71.4164C215.046 71.3124 214.75 71.2124 214.342 71.1164C213.894 71.0044 213.53 70.8924 213.25 70.7804C212.97 70.6604 212.726 70.4684 212.518 70.2044C212.318 69.9404 212.218 69.5844 212.218 69.1364C212.218 68.5764 212.446 68.1284 212.902 67.7924C213.366 67.4564 213.986 67.2884 214.762 67.2884C215.138 67.2884 215.486 67.3324 215.806 67.4204C216.126 67.5004 216.454 67.6364 216.79 67.8284V69.2924C216.446 69.0524 216.126 68.8804 215.83 68.7764C215.534 68.6724 215.218 68.6204 214.882 68.6204C214.514 68.6204 214.23 68.6684 214.03 68.7644C213.83 68.8524 213.73 68.9844 213.73 69.1604C213.73 69.3364 213.814 69.4684 213.982 69.5564C214.158 69.6364 214.434 69.7204 214.81 69.8084C215.258 69.9044 215.63 70.0164 215.926 70.1444C216.23 70.2644 216.49 70.4644 216.706 70.7444C216.922 71.0164 217.03 71.3964 217.03 71.8844C217.03 72.2604 216.922 72.6004 216.706 72.9044C216.49 73.2004 216.186 73.4324 215.794 73.6004C215.402 73.7604 214.958 73.8404 214.462 73.8404Z" fill="#383E56"/>
</svg>
